<svg width="1024" height="819" viewBox="0 0 1024 819" fill="none" xmlns="http://www.w3.org/2000/svg">
<g clip-path="url(#clip0_2008_770)">
<path d="M1024 0H0V819H1024V0Z" fill="url(#paint0_linear_2008_770)"/>
<path d="M1024 386H0V665H1024V386Z" fill="url(#paint1_linear_2008_770)"/>
<path d="M0 386H1024ZM0 665H1024Z" fill="black"/>
<path d="M0 386H1024M0 665H1024" stroke="#EEEEEE" stroke-opacity="0.6"/>
<path d="M409 178L477.552 108.64L546.105 178H409Z" fill="url(#paint2_linear_2008_770)"/>
<path d="M409 178L477.552 108.64L453.952 178H409Z" fill="url(#paint3_linear_2008_770)"/>
<path d="M469.686 178L557.343 76L645 178H469.686Z" fill="url(#paint4_linear_2008_770)"/>
<path d="M324.245 199.734H353.659C360.066 199.734 364.857 201.258 368.034 204.305C371.238 207.352 372.839 211.688 372.839 217.312C372.839 223.094 371.094 227.612 367.605 230.867C364.141 234.122 358.842 235.75 351.706 235.75H342.019V257H324.245V199.734ZM342.019 224.148H346.355C349.766 224.148 352.162 223.562 353.542 222.391C354.922 221.193 355.613 219.669 355.613 217.82C355.613 216.023 355.014 214.5 353.816 213.25C352.618 212 350.365 211.375 347.058 211.375H342.019V224.148ZM420.305 240.203H388.43C388.716 242.755 389.406 244.656 390.5 245.906C392.036 247.703 394.042 248.602 396.516 248.602C398.078 248.602 399.563 248.211 400.969 247.43C401.828 246.935 402.753 246.062 403.742 244.812L419.406 246.258C417.01 250.424 414.12 253.419 410.734 255.242C407.349 257.039 402.492 257.938 396.164 257.938C390.669 257.938 386.346 257.169 383.195 255.633C380.044 254.07 377.427 251.609 375.344 248.25C373.286 244.865 372.258 240.893 372.258 236.336C372.258 229.852 374.328 224.604 378.469 220.594C382.635 216.583 388.378 214.578 395.695 214.578C401.633 214.578 406.32 215.477 409.758 217.273C413.195 219.07 415.813 221.674 417.609 225.086C419.406 228.497 420.305 232.938 420.305 238.406V240.203ZM404.133 232.586C403.82 229.513 402.987 227.312 401.633 225.984C400.305 224.656 398.547 223.992 396.359 223.992C393.833 223.992 391.815 224.995 390.305 227C389.341 228.25 388.729 230.112 388.469 232.586H404.133ZM437.302 228.953L422.106 227.352C422.679 224.695 423.499 222.612 424.567 221.102C425.661 219.565 427.223 218.237 429.255 217.117C430.713 216.31 432.718 215.685 435.27 215.242C437.822 214.799 440.583 214.578 443.552 214.578C448.317 214.578 452.145 214.852 455.036 215.398C457.927 215.919 460.335 217.026 462.263 218.719C463.617 219.891 464.684 221.557 465.466 223.719C466.247 225.854 466.638 227.898 466.638 229.852V248.172C466.638 250.125 466.755 251.661 466.989 252.781C467.249 253.875 467.796 255.281 468.63 257H453.708C453.109 255.932 452.718 255.125 452.536 254.578C452.354 254.005 452.171 253.12 451.989 251.922C449.906 253.927 447.835 255.359 445.778 256.219C442.966 257.365 439.697 257.938 435.973 257.938C431.026 257.938 427.263 256.792 424.684 254.5C422.132 252.208 420.856 249.383 420.856 246.023C420.856 242.872 421.781 240.281 423.63 238.25C425.479 236.219 428.89 234.708 433.864 233.719C439.828 232.521 443.695 231.688 445.466 231.219C447.236 230.724 449.111 230.086 451.091 229.305C451.091 227.352 450.687 225.984 449.88 225.203C449.072 224.422 447.653 224.031 445.622 224.031C443.018 224.031 441.065 224.448 439.763 225.281C438.747 225.932 437.927 227.156 437.302 228.953ZM451.091 237.312C448.903 238.094 446.624 238.784 444.255 239.383C441.026 240.242 438.981 241.089 438.122 241.922C437.236 242.781 436.794 243.758 436.794 244.852C436.794 246.102 437.223 247.13 438.083 247.938C438.968 248.719 440.257 249.109 441.95 249.109C443.721 249.109 445.361 248.68 446.872 247.82C448.408 246.961 449.489 245.919 450.114 244.695C450.765 243.445 451.091 241.831 451.091 239.852V237.312ZM471.369 199.734H487.619V229.266L499.494 215.516H519.064L504.181 230.047L519.923 257H501.994L493.595 240.359L487.619 246.219V257H471.369V199.734ZM520.788 199.734H544.069L553.053 234.578L561.998 199.734H585.202V257H570.748V213.328L559.538 257H546.452L535.28 213.328V257H520.788V199.734ZM636.73 240.203H604.855C605.141 242.755 605.831 244.656 606.925 245.906C608.461 247.703 610.467 248.602 612.941 248.602C614.503 248.602 615.987 248.211 617.394 247.43C618.253 246.935 619.178 246.062 620.167 244.812L635.831 246.258C633.435 250.424 630.545 253.419 627.159 255.242C623.774 257.039 618.917 257.938 612.589 257.938C607.094 257.938 602.771 257.169 599.62 255.633C596.469 254.07 593.852 251.609 591.769 248.25C589.711 244.865 588.683 240.893 588.683 236.336C588.683 229.852 590.753 224.604 594.894 220.594C599.06 216.583 604.803 214.578 612.12 214.578C618.058 214.578 622.745 215.477 626.183 217.273C629.62 219.07 632.237 221.674 634.034 225.086C635.831 228.497 636.73 232.938 636.73 238.406V240.203ZM620.558 232.586C620.245 229.513 619.412 227.312 618.058 225.984C616.73 224.656 614.972 223.992 612.784 223.992C610.258 223.992 608.24 224.995 606.73 227C605.766 228.25 605.154 230.112 604.894 232.586H620.558ZM685.289 240.203H653.414C653.701 242.755 654.391 244.656 655.484 245.906C657.021 247.703 659.026 248.602 661.5 248.602C663.062 248.602 664.547 248.211 665.953 247.43C666.812 246.935 667.737 246.062 668.727 244.812L684.391 246.258C681.995 250.424 679.104 253.419 675.719 255.242C672.333 257.039 667.477 257.938 661.148 257.938C655.654 257.938 651.331 257.169 648.18 255.633C645.029 254.07 642.411 251.609 640.328 248.25C638.271 244.865 637.242 240.893 637.242 236.336C637.242 229.852 639.312 224.604 643.453 220.594C647.62 216.583 653.362 214.578 660.68 214.578C666.617 214.578 671.305 215.477 674.742 217.273C678.18 219.07 680.797 221.674 682.594 225.086C684.391 228.497 685.289 232.938 685.289 238.406V240.203ZM669.117 232.586C668.805 229.513 667.971 227.312 666.617 225.984C665.289 224.656 663.531 223.992 661.344 223.992C658.818 223.992 656.799 224.995 655.289 227C654.326 228.25 653.714 230.112 653.453 232.586H669.117ZM706.973 199.734V215.516H715.723V227.117H706.973V241.844C706.973 243.615 707.143 244.786 707.481 245.359C708.002 246.245 708.914 246.688 710.216 246.688C711.388 246.688 713.028 246.349 715.138 245.672L716.309 256.648C712.377 257.508 708.705 257.938 705.294 257.938C701.335 257.938 698.419 257.43 696.544 256.414C694.669 255.398 693.276 253.862 692.364 251.805C691.479 249.721 691.036 246.362 691.036 241.727V227.117H685.177V215.516H691.036V207.898L706.973 199.734Z" fill="#0B0D10"/>
<rect x="343" y="286" width="56" height="3" fill="#FF6522"/>
<rect x="638" y="286" width="60" height="3" fill="#FF6522"/>
<path d="M425.082 298V277.241H439.086V279.691H427.829V286.12H437.571V288.569H427.829V298H425.082ZM455.316 298V277.241H458.063V298H455.316ZM480.382 298V279.691H473.543V277.241H489.997V279.691H483.129V298H480.382ZM504.98 298V277.241H507.798L518.702 293.54V277.241H521.335V298H518.518L507.614 281.688V298H504.98ZM538.202 298V277.241H553.212V279.691H540.95V286.049H552.433V288.484H540.95V295.55H553.694V298H538.202ZM568.734 291.331L571.325 291.104C571.448 292.142 571.731 292.997 572.175 293.667C572.628 294.328 573.327 294.866 574.271 295.281C575.215 295.687 576.277 295.89 577.457 295.89C578.505 295.89 579.43 295.734 580.232 295.423C581.034 295.111 581.629 294.687 582.016 294.148C582.413 293.601 582.611 293.006 582.611 292.364C582.611 291.713 582.422 291.146 582.045 290.665C581.667 290.174 581.044 289.764 580.175 289.433C579.618 289.216 578.387 288.881 576.48 288.428C574.573 287.965 573.237 287.531 572.472 287.125C571.481 286.606 570.74 285.964 570.249 285.199C569.768 284.425 569.527 283.561 569.527 282.608C569.527 281.56 569.824 280.583 570.419 279.677C571.014 278.761 571.882 278.067 573.025 277.595C574.167 277.123 575.436 276.887 576.834 276.887C578.372 276.887 579.727 277.137 580.898 277.638C582.078 278.129 582.984 278.855 583.616 279.818C584.249 280.781 584.589 281.872 584.636 283.089L582.002 283.288C581.86 281.975 581.379 280.984 580.558 280.314C579.746 279.644 578.542 279.309 576.947 279.309C575.285 279.309 574.072 279.615 573.308 280.229C572.553 280.833 572.175 281.565 572.175 282.424C572.175 283.17 572.444 283.783 572.982 284.265C573.511 284.746 574.889 285.242 577.117 285.751C579.354 286.252 580.888 286.691 581.719 287.068C582.927 287.625 583.819 288.333 584.395 289.192C584.971 290.042 585.259 291.024 585.259 292.138C585.259 293.242 584.943 294.285 584.31 295.267C583.678 296.239 582.767 296.999 581.577 297.547C580.397 298.085 579.066 298.354 577.584 298.354C575.706 298.354 574.129 298.08 572.855 297.533C571.59 296.985 570.594 296.164 569.867 295.069C569.149 293.964 568.772 292.718 568.734 291.331ZM600.257 291.331L602.848 291.104C602.971 292.142 603.254 292.997 603.698 293.667C604.151 294.328 604.849 294.866 605.793 295.281C606.737 295.687 607.799 295.89 608.979 295.89C610.027 295.89 610.952 295.734 611.755 295.423C612.557 295.111 613.152 294.687 613.539 294.148C613.936 293.601 614.134 293.006 614.134 292.364C614.134 291.713 613.945 291.146 613.567 290.665C613.19 290.174 612.567 289.764 611.698 289.433C611.141 289.216 609.909 288.881 608.002 288.428C606.096 287.965 604.76 287.531 603.995 287.125C603.004 286.606 602.263 285.964 601.772 285.199C601.29 284.425 601.05 283.561 601.05 282.608C601.05 281.56 601.347 280.583 601.942 279.677C602.537 278.761 603.405 278.067 604.547 277.595C605.69 277.123 606.959 276.887 608.356 276.887C609.895 276.887 611.25 277.137 612.42 277.638C613.6 278.129 614.507 278.855 615.139 279.818C615.772 280.781 616.111 281.872 616.159 283.089L613.525 283.288C613.383 281.975 612.902 280.984 612.081 280.314C611.269 279.644 610.065 279.309 608.47 279.309C606.808 279.309 605.595 279.615 604.831 280.229C604.075 280.833 603.698 281.565 603.698 282.424C603.698 283.17 603.967 283.783 604.505 284.265C605.033 284.746 606.412 285.242 608.64 285.751C610.877 286.252 612.411 286.691 613.242 287.068C614.45 287.625 615.342 288.333 615.918 289.192C616.494 290.042 616.782 291.024 616.782 292.138C616.782 293.242 616.465 294.285 615.833 295.267C615.2 296.239 614.29 296.999 613.1 297.547C611.92 298.085 610.589 298.354 609.107 298.354C607.228 298.354 605.652 298.08 604.377 297.533C603.112 296.985 602.117 296.164 601.39 295.069C600.672 293.964 600.295 292.718 600.257 291.331Z" fill="#FF5722"/>
<path d="M396.736 320.852V341.574H394.838V339.962H381.162V341.574H379.264V320.852H384.828C385.4 319.812 385.842 318.772 386.102 317.68L388 317.94C387.714 318.98 387.298 319.968 386.778 320.852H396.736ZM381.162 338.168H394.838V333.93H381.162V338.168ZM381.162 332.214H394.838V328.236H381.162V332.214ZM381.162 326.52H394.838V322.646H381.162V326.52ZM430.068 329.64H424.53V331.85H430.666V333.514H424.53V335.932H432.096V337.648H424.53V341.652H422.606V337.648H416.08V335.932H422.606V333.514H417.354V331.85H422.606V329.64H417.666V327.976H422.606V325.662H416.496V324.024H422.606V321.684H417.822V320.02H422.606V317.758H424.53V320.02H430.068V324.024H432.382V325.662H430.068V329.64ZM424.53 321.684V324.024H428.3V321.684H424.53ZM424.53 325.662V327.976H428.3V325.662H424.53ZM412.128 330.602C411.244 331.538 410.256 332.396 409.216 333.202L408.67 331.408C411.166 329.38 412.986 327.092 414.13 324.518L415.768 325.246C415.248 326.338 414.65 327.404 413.948 328.392V341.6H412.128V330.602ZM413.896 317.68L415.534 318.434C414.234 321.268 412.102 323.764 409.164 325.948L408.618 324.128C411.036 322.256 412.804 320.098 413.896 317.68ZM448.242 327.014H457.836V336.114H448.242V327.014ZM456.016 334.346V328.782H450.062V334.346H456.016ZM451.31 317.68L453.26 317.94C452.948 319.24 452.506 320.436 451.934 321.554H463.4V338.896C463.4 340.586 462.594 341.444 461.034 341.444H457.134L456.614 339.546L460.41 339.624C461.138 339.624 461.528 339.234 461.528 338.48V323.348H444.68V341.548H442.808V321.554H449.958C450.582 320.306 451.024 319.032 451.31 317.68ZM483.316 317.758H485.24V325.792H494.886V327.612H485.24V338.74H497.096V340.56H473.956V338.74H483.316V317.758ZM509.836 335.906C510.408 335.906 510.902 336.14 511.266 336.634C511.604 337.102 511.786 337.7 511.786 338.454C511.786 339.598 511.448 340.612 510.772 341.496C510.096 342.328 509.186 342.9 508.094 343.186V341.912C508.77 341.678 509.316 341.288 509.732 340.768C510.096 340.222 510.304 339.65 510.304 339.026C510.2 339.078 509.992 339.13 509.732 339.13C509.29 339.13 508.926 338.974 508.614 338.662C508.302 338.35 508.146 337.96 508.146 337.518C508.146 337.024 508.302 336.634 508.614 336.348C508.926 336.036 509.316 335.906 509.836 335.906ZM548.888 318.876H562.044V320.696H556.298C556.22 321.632 556.116 322.542 555.96 323.426H561.186V335.75H559.34V325.168H551.462V335.802H549.642V323.426H554.062C554.218 322.542 554.322 321.632 554.4 320.696H548.888V318.876ZM557.52 335.906C559.392 337.362 560.978 338.792 562.252 340.248L560.9 341.626C559.756 340.222 558.222 338.714 556.246 337.102L557.52 335.906ZM554.374 326.702H556.22V331.33C556.142 334.086 555.466 336.296 554.166 337.908C552.892 339.416 550.812 340.612 547.926 341.496L546.912 339.91C549.694 339.104 551.618 338.038 552.71 336.712C553.75 335.334 554.296 333.54 554.374 331.33V326.702ZM542.622 341.262H539.684L539.268 339.494C540.204 339.546 541.114 339.598 541.972 339.598C542.596 339.598 542.934 339.208 542.934 338.48V320.696H538.93V318.876H547.978V320.696H544.858V338.948C544.858 340.482 544.104 341.262 542.622 341.262ZM571.69 321.008H573.224V336.582L575.096 336.348V317.966H576.604V336.114C577.228 336.01 577.852 335.88 578.45 335.776V321.008H579.958V326.988C582.324 326.52 584.326 325.922 585.99 325.194C585.002 324.466 584.196 323.712 583.572 322.88C583.052 323.4 582.532 323.868 581.96 324.336L580.816 322.984C582.636 321.632 584.144 319.864 585.314 317.68L586.978 318.044C586.666 318.616 586.354 319.188 586.042 319.708H592.828V321.19C592.1 322.698 590.956 323.998 589.422 325.116C590.982 325.766 592.854 326.286 594.986 326.65L594.336 328.314C591.632 327.82 589.422 327.118 587.654 326.208C585.756 327.196 583.442 328.028 580.738 328.652L579.958 327.196V338.74H578.45V337.414C576.526 337.778 574.368 338.09 571.976 338.35L571.248 336.816C571.534 336.712 571.69 336.53 571.69 336.296V321.008ZM581.492 329.64H586.692V327.794H588.538V329.64H593.66V331.304H588.538V333.436H593.088V335.1H588.538V337.18H594.518V338.818H588.538V341.626H586.692V338.818H580.842V337.18H586.692V335.1H581.96V333.436H586.692V331.304H581.492V329.64ZM587.68 324.284C589.058 323.426 590.124 322.438 590.852 321.32H584.95L584.638 321.71C585.366 322.698 586.38 323.556 587.68 324.284ZM626.212 319.292V341.6H624.392V339.988H615.864V341.626H614.07V319.292H626.212ZM615.864 338.22H624.392V333.618H615.864V338.22ZM615.864 331.876H624.392V327.274H615.864V331.876ZM615.864 325.532H624.392V321.06H615.864V325.532ZM609.494 328.002V341.574H607.648V328.392C606.764 330.888 605.646 333.124 604.242 335.152L603.514 333.306C605.412 330.784 606.764 327.898 607.596 324.648H603.982V322.854H607.648V317.784H609.494V322.854H612.848V324.648H609.494V326.026C610.69 327.274 611.886 328.678 613.082 330.212L612.068 331.72C611.08 330.212 610.222 328.964 609.494 328.002ZM655.514 318.85V333.15H653.616V320.67H642.072V333.176H640.2V318.85H655.514ZM646.752 322.412H648.598V327.3C648.494 331.174 647.558 334.268 645.816 336.582C644.126 338.74 641.344 340.43 637.47 341.652L636.456 340.066C640.304 338.87 642.982 337.284 644.49 335.308C645.894 333.254 646.648 330.576 646.752 327.3V322.412ZM656.008 341.106H650.912C649.248 341.106 648.442 340.144 648.442 338.246V331.278H650.288V337.908C650.288 338.844 650.652 339.338 651.432 339.338H655.514C655.956 339.338 656.32 339.208 656.606 338.974C656.97 338.636 657.23 337.44 657.334 335.412L659.128 335.984C658.894 338.428 658.53 339.936 658.036 340.456C657.568 340.872 656.892 341.08 656.008 341.106Z" fill="#8B8B8B"/>
<path d="M462 413H405C393.402 413 384 422.402 384 434V490C384 501.598 393.402 511 405 511H462C473.598 511 483 501.598 483 490V434C483 422.402 473.598 413 462 413Z" fill="white" stroke="#ECECEC"/>
<path d="M608 413H552C540.402 413 531 422.402 531 434V490C531 501.598 540.402 511 552 511H608C619.598 511 629 501.598 629 490V434C629 422.402 619.598 413 608 413Z" fill="url(#paint5_linear_2008_770)"/>
<path d="M756 413H699C687.402 413 678 422.402 678 434V490C678 501.598 687.402 511 699 511H756C767.598 511 777 501.598 777 490V434C777 422.402 767.598 413 756 413Z" fill="url(#paint6_linear_2008_770)"/>
<path d="M397 480L418.495 456.88L439.99 480H397Z" fill="url(#paint7_linear_2008_770)"/>
<path d="M397 480L418.495 456.88L411.095 480H397Z" fill="url(#paint8_linear_2008_770)"/>
<path d="M416.029 480L443.514 446L471 480H416.029Z" fill="url(#paint9_linear_2008_770)"/>
<path d="M544 480L565.205 456.2L586.41 480H544Z" fill="white"/>
<path d="M562.771 480L589.886 445L617 480H562.771Z" fill="white"/>
<path d="M691 480L712.205 456.2L733.41 480H691Z" fill="#25282D"/>
<path d="M709.771 480L736.886 445L764 480H709.771Z" fill="#111318"/>
<path d="M335 552H60C55.5817 552 52 555.582 52 560V638C52 642.418 55.5817 646 60 646H335C339.418 646 343 642.418 343 638V560C343 555.582 339.418 552 335 552Z" fill="url(#paint10_linear_2008_770)"/>
<path d="M84 618L106.367 594.2L128.733 618H84Z" fill="url(#paint11_linear_2008_770)"/>
<path d="M84 618L106.367 594.2L98.6667 618H84Z" fill="url(#paint12_linear_2008_770)"/>
<path d="M103.8 618L132.4 583L161 618H103.8Z" fill="url(#paint13_linear_2008_770)"/>
<path d="M170.168 583.525H181.198C183.601 583.525 185.397 584.097 186.589 585.239C187.79 586.382 188.391 588.008 188.391 590.117C188.391 592.285 187.736 593.979 186.428 595.2C185.129 596.421 183.142 597.031 180.466 597.031H176.833V605H170.168V583.525ZM176.833 592.681H178.459C179.738 592.681 180.637 592.461 181.154 592.021C181.672 591.572 181.931 591.001 181.931 590.308C181.931 589.634 181.706 589.062 181.257 588.594C180.808 588.125 179.963 587.891 178.723 587.891H176.833V592.681ZM206.19 598.701H194.237C194.345 599.658 194.603 600.371 195.013 600.84C195.59 601.514 196.342 601.851 197.269 601.851C197.855 601.851 198.412 601.704 198.939 601.411C199.262 601.226 199.608 600.898 199.979 600.43L205.853 600.972C204.955 602.534 203.871 603.657 202.601 604.341C201.332 605.015 199.511 605.352 197.138 605.352C195.077 605.352 193.456 605.063 192.274 604.487C191.093 603.901 190.111 602.979 189.33 601.719C188.558 600.449 188.173 598.96 188.173 597.251C188.173 594.819 188.949 592.852 190.502 591.348C192.064 589.844 194.218 589.092 196.962 589.092C199.188 589.092 200.946 589.429 202.235 590.103C203.524 590.776 204.506 591.753 205.179 593.032C205.853 594.312 206.19 595.977 206.19 598.027V598.701ZM200.126 595.845C200.009 594.692 199.696 593.867 199.188 593.369C198.69 592.871 198.031 592.622 197.211 592.622C196.263 592.622 195.507 592.998 194.94 593.75C194.579 594.219 194.349 594.917 194.252 595.845H200.126ZM212.564 594.482L206.866 593.882C207.081 592.886 207.388 592.104 207.789 591.538C208.199 590.962 208.785 590.464 209.546 590.044C210.093 589.741 210.845 589.507 211.802 589.341C212.759 589.175 213.795 589.092 214.908 589.092C216.695 589.092 218.13 589.194 219.214 589.399C220.298 589.595 221.202 590.01 221.924 590.645C222.432 591.084 222.833 591.709 223.126 592.52C223.419 593.32 223.565 594.087 223.565 594.819V601.689C223.565 602.422 223.609 602.998 223.697 603.418C223.795 603.828 224 604.355 224.312 605H218.716C218.492 604.6 218.345 604.297 218.277 604.092C218.209 603.877 218.14 603.545 218.072 603.096C217.291 603.848 216.514 604.385 215.743 604.707C214.688 605.137 213.463 605.352 212.066 605.352C210.211 605.352 208.799 604.922 207.833 604.062C206.876 603.203 206.397 602.144 206.397 600.884C206.397 599.702 206.744 598.73 207.437 597.969C208.13 597.207 209.41 596.641 211.275 596.27C213.511 595.82 214.962 595.508 215.626 595.332C216.29 595.146 216.993 594.907 217.735 594.614C217.735 593.882 217.584 593.369 217.281 593.076C216.978 592.783 216.446 592.637 215.684 592.637C214.708 592.637 213.975 592.793 213.487 593.105C213.106 593.35 212.798 593.809 212.564 594.482ZM217.735 597.617C216.915 597.91 216.06 598.169 215.171 598.394C213.961 598.716 213.194 599.033 212.872 599.346C212.54 599.668 212.374 600.034 212.374 600.444C212.374 600.913 212.535 601.299 212.857 601.602C213.189 601.895 213.672 602.041 214.307 602.041C214.971 602.041 215.587 601.88 216.153 601.558C216.729 601.235 217.134 600.845 217.369 600.386C217.613 599.917 217.735 599.312 217.735 598.569V597.617ZM225.339 583.525H231.433V594.6L235.886 589.443H243.225L237.644 594.893L243.547 605H236.824L233.674 598.76L231.433 600.957V605H225.339V583.525ZM243.871 583.525H252.602L255.971 596.592L259.325 583.525H268.027V605H262.607V588.623L258.403 605H253.495L249.306 588.623V605H243.871V583.525ZM287.35 598.701H275.396C275.504 599.658 275.763 600.371 276.173 600.84C276.749 601.514 277.501 601.851 278.429 601.851C279.015 601.851 279.571 601.704 280.099 601.411C280.421 601.226 280.768 600.898 281.139 600.43L287.013 600.972C286.114 602.534 285.03 603.657 283.761 604.341C282.491 605.015 280.67 605.352 278.297 605.352C276.236 605.352 274.615 605.063 273.434 604.487C272.252 603.901 271.271 602.979 270.489 601.719C269.718 600.449 269.332 598.96 269.332 597.251C269.332 594.819 270.108 592.852 271.661 591.348C273.224 589.844 275.377 589.092 278.121 589.092C280.348 589.092 282.105 589.429 283.395 590.103C284.684 590.776 285.665 591.753 286.339 593.032C287.013 594.312 287.35 595.977 287.35 598.027V598.701ZM281.285 595.845C281.168 594.692 280.855 593.867 280.348 593.369C279.85 592.871 279.19 592.622 278.37 592.622C277.423 592.622 276.666 592.998 276.1 593.75C275.738 594.219 275.509 594.917 275.411 595.845H281.285ZM305.559 598.701H293.606C293.714 599.658 293.972 600.371 294.383 600.84C294.959 601.514 295.711 601.851 296.638 601.851C297.224 601.851 297.781 601.704 298.308 601.411C298.631 601.226 298.977 600.898 299.348 600.43L305.222 600.972C304.324 602.534 303.24 603.657 301.971 604.341C300.701 605.015 298.88 605.352 296.507 605.352C294.446 605.352 292.825 605.063 291.643 604.487C290.462 603.901 289.48 602.979 288.699 601.719C287.928 600.449 287.542 598.96 287.542 597.251C287.542 594.819 288.318 592.852 289.871 591.348C291.433 589.844 293.587 589.092 296.331 589.092C298.557 589.092 300.315 589.429 301.604 590.103C302.893 590.776 303.875 591.753 304.549 593.032C305.222 594.312 305.559 595.977 305.559 598.027V598.701ZM299.495 595.845C299.378 594.692 299.065 593.867 298.557 593.369C298.059 592.871 297.4 592.622 296.58 592.622C295.633 592.622 294.876 592.998 294.309 593.75C293.948 594.219 293.719 594.917 293.621 595.845H299.495ZM313.691 583.525V589.443H316.972V593.794H313.691V599.316C313.691 599.98 313.754 600.42 313.881 600.635C314.077 600.967 314.419 601.133 314.907 601.133C315.346 601.133 315.962 601.006 316.753 600.752L317.192 604.868C315.717 605.19 314.34 605.352 313.061 605.352C311.577 605.352 310.483 605.161 309.78 604.78C309.077 604.399 308.554 603.823 308.212 603.052C307.88 602.271 307.714 601.011 307.714 599.272V593.794H305.517V589.443H307.714V586.587L313.691 583.525Z" fill="#F7F7F7"/>
<path d="M176 616H195ZM285 616H304Z" fill="black"/>
<path d="M176 616H195M285 616H304" stroke="#FF5722"/>
<path d="M204.414 619V611.842H209.321V613.053H205.86V614.747H208.848V615.958H205.86V619H204.414ZM215.374 619V611.842H216.819V619H215.374ZM224.712 619V613.053H222.588V611.842H228.277V613.053H226.158V619H224.712ZM234.129 619V611.842H235.535L238.465 616.622V611.842H239.808V619H238.357L235.472 614.332V619H234.129ZM246.241 619V611.842H251.548V613.053H247.686V614.64H251.28V615.846H247.686V617.794H251.685V619H246.241ZM257.445 616.671L258.851 616.534C258.935 617.006 259.106 617.353 259.363 617.574C259.624 617.796 259.974 617.906 260.413 617.906C260.879 617.906 261.229 617.809 261.463 617.613C261.701 617.415 261.82 617.184 261.82 616.92C261.82 616.751 261.769 616.607 261.668 616.49C261.571 616.37 261.398 616.266 261.151 616.178C260.981 616.119 260.596 616.015 259.993 615.865C259.219 615.673 258.675 615.437 258.362 615.157C257.923 614.763 257.703 614.283 257.703 613.717C257.703 613.352 257.806 613.012 258.011 612.696C258.219 612.377 258.517 612.135 258.904 611.969C259.295 611.803 259.765 611.72 260.316 611.72C261.214 611.72 261.89 611.917 262.342 612.311C262.798 612.704 263.037 613.23 263.06 613.888L261.614 613.951C261.553 613.583 261.419 613.32 261.214 613.16C261.012 612.997 260.708 612.916 260.301 612.916C259.881 612.916 259.552 613.002 259.315 613.175C259.162 613.285 259.085 613.434 259.085 613.619C259.085 613.788 259.157 613.933 259.3 614.054C259.482 614.207 259.925 614.366 260.628 614.532C261.331 614.698 261.85 614.871 262.186 615.05C262.524 615.226 262.788 615.468 262.977 615.777C263.169 616.083 263.265 616.463 263.265 616.915C263.265 617.325 263.151 617.709 262.923 618.067C262.695 618.425 262.373 618.692 261.956 618.868C261.54 619.041 261.02 619.127 260.399 619.127C259.494 619.127 258.799 618.919 258.314 618.502C257.829 618.082 257.539 617.472 257.445 616.671ZM269.014 616.671L270.421 616.534C270.505 617.006 270.676 617.353 270.933 617.574C271.194 617.796 271.544 617.906 271.983 617.906C272.449 617.906 272.799 617.809 273.033 617.613C273.271 617.415 273.389 617.184 273.389 616.92C273.389 616.751 273.339 616.607 273.238 616.49C273.14 616.37 272.968 616.266 272.721 616.178C272.551 616.119 272.165 616.015 271.563 615.865C270.789 615.673 270.245 615.437 269.932 615.157C269.493 614.763 269.273 614.283 269.273 613.717C269.273 613.352 269.376 613.012 269.581 612.696C269.789 612.377 270.087 612.135 270.474 611.969C270.865 611.803 271.335 611.72 271.886 611.72C272.784 611.72 273.459 611.917 273.912 612.311C274.368 612.704 274.607 613.23 274.63 613.888L273.184 613.951C273.123 613.583 272.989 613.32 272.784 613.16C272.582 612.997 272.278 612.916 271.871 612.916C271.451 612.916 271.122 613.002 270.885 613.175C270.732 613.285 270.655 613.434 270.655 613.619C270.655 613.788 270.727 613.933 270.87 614.054C271.052 614.207 271.495 614.366 272.198 614.532C272.901 614.698 273.42 614.871 273.756 615.05C274.094 615.226 274.358 615.468 274.547 615.777C274.739 616.083 274.835 616.463 274.835 616.915C274.835 617.325 274.721 617.709 274.493 618.067C274.265 618.425 273.943 618.692 273.526 618.868C273.11 619.041 272.59 619.127 271.969 619.127C271.064 619.127 270.369 618.919 269.884 618.502C269.399 618.082 269.109 617.472 269.014 616.671Z" fill="#FF5722"/>
<path d="M646 552H372C367.582 552 364 555.582 364 560V638C364 642.418 367.582 646 372 646H646C650.418 646 654 642.418 654 638V560C654 555.582 650.418 552 646 552Z" fill="white" stroke="#ECECEC"/>
<path d="M396 618L418.367 594.2L440.733 618H396Z" fill="url(#paint14_linear_2008_770)"/>
<path d="M396 618L418.367 594.2L410.667 618H396Z" fill="url(#paint15_linear_2008_770)"/>
<path d="M415.8 618L444.4 583L473 618H415.8Z" fill="url(#paint16_linear_2008_770)"/>
<path d="M482.168 583.525H493.198C495.601 583.525 497.397 584.097 498.589 585.239C499.79 586.382 500.391 588.008 500.391 590.117C500.391 592.285 499.736 593.979 498.428 595.2C497.129 596.421 495.142 597.031 492.466 597.031H488.833V605H482.168V583.525ZM488.833 592.681H490.459C491.738 592.681 492.637 592.461 493.154 592.021C493.672 591.572 493.931 591.001 493.931 590.308C493.931 589.634 493.706 589.062 493.257 588.594C492.808 588.125 491.963 587.891 490.723 587.891H488.833V592.681ZM518.19 598.701H506.237C506.345 599.658 506.603 600.371 507.013 600.84C507.59 601.514 508.342 601.851 509.269 601.851C509.855 601.851 510.412 601.704 510.939 601.411C511.262 601.226 511.608 600.898 511.979 600.43L517.853 600.972C516.955 602.534 515.871 603.657 514.601 604.341C513.332 605.015 511.511 605.352 509.138 605.352C507.077 605.352 505.456 605.063 504.274 604.487C503.093 603.901 502.111 602.979 501.33 601.719C500.558 600.449 500.173 598.96 500.173 597.251C500.173 594.819 500.949 592.852 502.502 591.348C504.064 589.844 506.218 589.092 508.962 589.092C511.188 589.092 512.946 589.429 514.235 590.103C515.524 590.776 516.506 591.753 517.179 593.032C517.853 594.312 518.19 595.977 518.19 598.027V598.701ZM512.126 595.845C512.009 594.692 511.696 593.867 511.188 593.369C510.69 592.871 510.031 592.622 509.211 592.622C508.263 592.622 507.507 592.998 506.94 593.75C506.579 594.219 506.349 594.917 506.252 595.845H512.126ZM524.564 594.482L518.866 593.882C519.081 592.886 519.388 592.104 519.789 591.538C520.199 590.962 520.785 590.464 521.546 590.044C522.093 589.741 522.845 589.507 523.802 589.341C524.759 589.175 525.795 589.092 526.908 589.092C528.695 589.092 530.13 589.194 531.214 589.399C532.298 589.595 533.202 590.01 533.924 590.645C534.432 591.084 534.833 591.709 535.126 592.52C535.419 593.32 535.565 594.087 535.565 594.819V601.689C535.565 602.422 535.609 602.998 535.697 603.418C535.795 603.828 536 604.355 536.312 605H530.716C530.492 604.6 530.345 604.297 530.277 604.092C530.209 603.877 530.14 603.545 530.072 603.096C529.291 603.848 528.514 604.385 527.743 604.707C526.688 605.137 525.463 605.352 524.066 605.352C522.211 605.352 520.799 604.922 519.833 604.062C518.876 603.203 518.397 602.144 518.397 600.884C518.397 599.702 518.744 598.73 519.437 597.969C520.13 597.207 521.41 596.641 523.275 596.27C525.511 595.82 526.962 595.508 527.626 595.332C528.29 595.146 528.993 594.907 529.735 594.614C529.735 593.882 529.584 593.369 529.281 593.076C528.978 592.783 528.446 592.637 527.684 592.637C526.708 592.637 525.975 592.793 525.487 593.105C525.106 593.35 524.798 593.809 524.564 594.482ZM529.735 597.617C528.915 597.91 528.06 598.169 527.171 598.394C525.961 598.716 525.194 599.033 524.872 599.346C524.54 599.668 524.374 600.034 524.374 600.444C524.374 600.913 524.535 601.299 524.857 601.602C525.189 601.895 525.672 602.041 526.307 602.041C526.971 602.041 527.587 601.88 528.153 601.558C528.729 601.235 529.134 600.845 529.369 600.386C529.613 599.917 529.735 599.312 529.735 598.569V597.617ZM537.339 583.525H543.433V594.6L547.886 589.443H555.225L549.644 594.893L555.547 605H548.824L545.674 598.76L543.433 600.957V605H537.339V583.525ZM555.871 583.525H564.602L567.971 596.592L571.325 583.525H580.027V605H574.607V588.623L570.403 605H565.495L561.306 588.623V605H555.871V583.525ZM599.35 598.701H587.396C587.504 599.658 587.763 600.371 588.173 600.84C588.749 601.514 589.501 601.851 590.429 601.851C591.015 601.851 591.571 601.704 592.099 601.411C592.421 601.226 592.768 600.898 593.139 600.43L599.013 600.972C598.114 602.534 597.03 603.657 595.761 604.341C594.491 605.015 592.67 605.352 590.297 605.352C588.236 605.352 586.615 605.063 585.434 604.487C584.252 603.901 583.271 602.979 582.489 601.719C581.718 600.449 581.332 598.96 581.332 597.251C581.332 594.819 582.108 592.852 583.661 591.348C585.224 589.844 587.377 589.092 590.121 589.092C592.348 589.092 594.105 589.429 595.395 590.103C596.684 590.776 597.665 591.753 598.339 593.032C599.013 594.312 599.35 595.977 599.35 598.027V598.701ZM593.285 595.845C593.168 594.692 592.855 593.867 592.348 593.369C591.85 592.871 591.19 592.622 590.37 592.622C589.423 592.622 588.666 592.998 588.1 593.75C587.738 594.219 587.509 594.917 587.411 595.845H593.285ZM617.559 598.701H605.606C605.714 599.658 605.972 600.371 606.383 600.84C606.959 601.514 607.711 601.851 608.638 601.851C609.224 601.851 609.781 601.704 610.308 601.411C610.631 601.226 610.977 600.898 611.348 600.43L617.222 600.972C616.324 602.534 615.24 603.657 613.971 604.341C612.701 605.015 610.88 605.352 608.507 605.352C606.446 605.352 604.825 605.063 603.643 604.487C602.462 603.901 601.48 602.979 600.699 601.719C599.928 600.449 599.542 598.96 599.542 597.251C599.542 594.819 600.318 592.852 601.871 591.348C603.433 589.844 605.587 589.092 608.331 589.092C610.557 589.092 612.315 589.429 613.604 590.103C614.893 590.776 615.875 591.753 616.549 593.032C617.222 594.312 617.559 595.977 617.559 598.027V598.701ZM611.495 595.845C611.378 594.692 611.065 593.867 610.557 593.369C610.059 592.871 609.4 592.622 608.58 592.622C607.633 592.622 606.876 592.998 606.309 593.75C605.948 594.219 605.719 594.917 605.621 595.845H611.495ZM625.691 583.525V589.443H628.972V593.794H625.691V599.316C625.691 599.98 625.754 600.42 625.881 600.635C626.077 600.967 626.419 601.133 626.907 601.133C627.346 601.133 627.962 601.006 628.753 600.752L629.192 604.868C627.717 605.19 626.34 605.352 625.061 605.352C623.577 605.352 622.483 605.161 621.78 604.78C621.077 604.399 620.554 603.823 620.212 603.052C619.88 602.271 619.714 601.011 619.714 599.272V593.794H617.517V589.443H619.714V586.587L625.691 583.525Z" fill="#101216"/>
<path d="M486 616H505ZM595 616H614Z" fill="black"/>
<path d="M486 616H505M595 616H614" stroke="#FF5722"/>
<path d="M514.514 619V611.842H519.421V613.053H515.96V614.747H518.948V615.958H515.96V619H514.514ZM525.774 619V611.842H527.219V619H525.774ZM535.412 619V613.053H533.288V611.842H538.977V613.053H536.858V619H535.412ZM545.129 619V611.842H546.535L549.465 616.622V611.842H550.808V619H549.357L546.472 614.332V619H545.129ZM557.541 619V611.842H562.848V613.053H558.986V614.64H562.58V615.846H558.986V617.794H562.985V619H557.541ZM569.045 616.671L570.451 616.534C570.535 617.006 570.706 617.353 570.963 617.574C571.224 617.796 571.574 617.906 572.013 617.906C572.479 617.906 572.829 617.809 573.063 617.613C573.301 617.415 573.42 617.184 573.42 616.92C573.42 616.751 573.369 616.607 573.268 616.49C573.171 616.37 572.998 616.266 572.751 616.178C572.581 616.119 572.196 616.015 571.593 615.865C570.819 615.673 570.275 615.437 569.963 615.157C569.523 614.763 569.303 614.283 569.303 613.717C569.303 613.352 569.406 613.012 569.611 612.696C569.819 612.377 570.117 612.135 570.504 611.969C570.895 611.803 571.365 611.72 571.916 611.72C572.814 611.72 573.49 611.917 573.942 612.311C574.398 612.704 574.637 613.23 574.66 613.888L573.214 613.951C573.153 613.583 573.019 613.32 572.814 613.16C572.612 612.997 572.308 612.916 571.901 612.916C571.481 612.916 571.152 613.002 570.915 613.175C570.762 613.285 570.685 613.434 570.685 613.619C570.685 613.788 570.757 613.933 570.9 614.054C571.082 614.207 571.525 614.366 572.228 614.532C572.931 614.698 573.45 614.871 573.786 615.05C574.124 615.226 574.388 615.468 574.577 615.777C574.769 616.083 574.865 616.463 574.865 616.915C574.865 617.325 574.751 617.709 574.523 618.067C574.295 618.425 573.973 618.692 573.556 618.868C573.14 619.041 572.62 619.127 571.999 619.127C571.094 619.127 570.399 618.919 569.914 618.502C569.429 618.082 569.139 617.472 569.045 616.671ZM580.914 616.671L582.321 616.534C582.405 617.006 582.576 617.353 582.833 617.574C583.094 617.796 583.444 617.906 583.883 617.906C584.349 617.906 584.699 617.809 584.933 617.613C585.171 617.415 585.289 617.184 585.289 616.92C585.289 616.751 585.239 616.607 585.138 616.49C585.04 616.37 584.868 616.266 584.621 616.178C584.451 616.119 584.065 616.015 583.463 615.865C582.689 615.673 582.145 615.437 581.832 615.157C581.393 614.763 581.173 614.283 581.173 613.717C581.173 613.352 581.276 613.012 581.481 612.696C581.689 612.377 581.987 612.135 582.374 611.969C582.765 611.803 583.235 611.72 583.786 611.72C584.684 611.72 585.359 611.917 585.812 612.311C586.268 612.704 586.507 613.23 586.53 613.888L585.084 613.951C585.023 613.583 584.889 613.32 584.684 613.16C584.482 612.997 584.178 612.916 583.771 612.916C583.351 612.916 583.022 613.002 582.785 613.175C582.632 613.285 582.555 613.434 582.555 613.619C582.555 613.788 582.627 613.933 582.77 614.054C582.952 614.207 583.395 614.366 584.098 614.532C584.801 614.698 585.32 614.871 585.656 615.05C585.994 615.226 586.258 615.468 586.447 615.777C586.639 616.083 586.735 616.463 586.735 616.915C586.735 617.325 586.621 617.709 586.393 618.067C586.165 618.425 585.843 618.692 585.426 618.868C585.01 619.041 584.49 619.127 583.869 619.127C582.964 619.127 582.269 618.919 581.784 618.502C581.299 618.082 581.009 617.472 580.914 616.671Z" fill="#FF5722"/>
<path d="M960 552H685C680.582 552 677 555.582 677 560V638C677 642.418 680.582 646 685 646H960C964.418 646 968 642.418 968 638V560C968 555.582 964.418 552 960 552Z" fill="url(#paint17_linear_2008_770)"/>
<path d="M710 618L731.495 594.2L752.99 618H710Z" fill="white"/>
<path d="M729.029 618L756.514 583L784 618H729.029Z" fill="white"/>
<path d="M795.168 583.525H806.198C808.601 583.525 810.397 584.097 811.589 585.239C812.79 586.382 813.391 588.008 813.391 590.117C813.391 592.285 812.736 593.979 811.428 595.2C810.129 596.421 808.142 597.031 805.466 597.031H801.833V605H795.168V583.525ZM801.833 592.681H803.459C804.738 592.681 805.637 592.461 806.154 592.021C806.672 591.572 806.931 591.001 806.931 590.308C806.931 589.634 806.706 589.062 806.257 588.594C805.808 588.125 804.963 587.891 803.723 587.891H801.833V592.681ZM831.19 598.701H819.237C819.345 599.658 819.603 600.371 820.013 600.84C820.59 601.514 821.342 601.851 822.269 601.851C822.855 601.851 823.412 601.704 823.939 601.411C824.262 601.226 824.608 600.898 824.979 600.43L830.853 600.972C829.955 602.534 828.871 603.657 827.601 604.341C826.332 605.015 824.511 605.352 822.138 605.352C820.077 605.352 818.456 605.063 817.274 604.487C816.093 603.901 815.111 602.979 814.33 601.719C813.558 600.449 813.173 598.96 813.173 597.251C813.173 594.819 813.949 592.852 815.502 591.348C817.064 589.844 819.218 589.092 821.962 589.092C824.188 589.092 825.946 589.429 827.235 590.103C828.524 590.776 829.506 591.753 830.179 593.032C830.853 594.312 831.19 595.977 831.19 598.027V598.701ZM825.126 595.845C825.009 594.692 824.696 593.867 824.188 593.369C823.69 592.871 823.031 592.622 822.211 592.622C821.263 592.622 820.507 592.998 819.94 593.75C819.579 594.219 819.349 594.917 819.252 595.845H825.126ZM837.564 594.482L831.866 593.882C832.081 592.886 832.388 592.104 832.789 591.538C833.199 590.962 833.785 590.464 834.546 590.044C835.093 589.741 835.845 589.507 836.802 589.341C837.759 589.175 838.795 589.092 839.908 589.092C841.695 589.092 843.13 589.194 844.214 589.399C845.298 589.595 846.202 590.01 846.924 590.645C847.432 591.084 847.833 591.709 848.126 592.52C848.419 593.32 848.565 594.087 848.565 594.819V601.689C848.565 602.422 848.609 602.998 848.697 603.418C848.795 603.828 849 604.355 849.312 605H843.716C843.492 604.6 843.345 604.297 843.277 604.092C843.209 603.877 843.14 603.545 843.072 603.096C842.291 603.848 841.514 604.385 840.743 604.707C839.688 605.137 838.463 605.352 837.066 605.352C835.211 605.352 833.799 604.922 832.833 604.062C831.876 603.203 831.397 602.144 831.397 600.884C831.397 599.702 831.744 598.73 832.437 597.969C833.13 597.207 834.41 596.641 836.275 596.27C838.511 595.82 839.962 595.508 840.626 595.332C841.29 595.146 841.993 594.907 842.735 594.614C842.735 593.882 842.584 593.369 842.281 593.076C841.978 592.783 841.446 592.637 840.684 592.637C839.708 592.637 838.975 592.793 838.487 593.105C838.106 593.35 837.798 593.809 837.564 594.482ZM842.735 597.617C841.915 597.91 841.06 598.169 840.171 598.394C838.961 598.716 838.194 599.033 837.872 599.346C837.54 599.668 837.374 600.034 837.374 600.444C837.374 600.913 837.535 601.299 837.857 601.602C838.189 601.895 838.672 602.041 839.307 602.041C839.971 602.041 840.587 601.88 841.153 601.558C841.729 601.235 842.134 600.845 842.369 600.386C842.613 599.917 842.735 599.312 842.735 598.569V597.617ZM850.339 583.525H856.433V594.6L860.886 589.443H868.225L862.644 594.893L868.547 605H861.824L858.674 598.76L856.433 600.957V605H850.339V583.525ZM868.871 583.525H877.602L880.971 596.592L884.325 583.525H893.027V605H887.607V588.623L883.403 605H878.495L874.306 588.623V605H868.871V583.525ZM912.35 598.701H900.396C900.504 599.658 900.763 600.371 901.173 600.84C901.749 601.514 902.501 601.851 903.429 601.851C904.015 601.851 904.571 601.704 905.099 601.411C905.421 601.226 905.768 600.898 906.139 600.43L912.013 600.972C911.114 602.534 910.03 603.657 908.761 604.341C907.491 605.015 905.67 605.352 903.297 605.352C901.236 605.352 899.615 605.063 898.434 604.487C897.252 603.901 896.271 602.979 895.489 601.719C894.718 600.449 894.332 598.96 894.332 597.251C894.332 594.819 895.108 592.852 896.661 591.348C898.224 589.844 900.377 589.092 903.121 589.092C905.348 589.092 907.105 589.429 908.395 590.103C909.684 590.776 910.665 591.753 911.339 593.032C912.013 594.312 912.35 595.977 912.35 598.027V598.701ZM906.285 595.845C906.168 594.692 905.855 593.867 905.348 593.369C904.85 592.871 904.19 592.622 903.37 592.622C902.423 592.622 901.666 592.998 901.1 593.75C900.738 594.219 900.509 594.917 900.411 595.845H906.285ZM930.559 598.701H918.606C918.714 599.658 918.972 600.371 919.383 600.84C919.959 601.514 920.711 601.851 921.638 601.851C922.224 601.851 922.781 601.704 923.308 601.411C923.631 601.226 923.977 600.898 924.348 600.43L930.222 600.972C929.324 602.534 928.24 603.657 926.971 604.341C925.701 605.015 923.88 605.352 921.507 605.352C919.446 605.352 917.825 605.063 916.643 604.487C915.462 603.901 914.48 602.979 913.699 601.719C912.928 600.449 912.542 598.96 912.542 597.251C912.542 594.819 913.318 592.852 914.871 591.348C916.433 589.844 918.587 589.092 921.331 589.092C923.557 589.092 925.315 589.429 926.604 590.103C927.893 590.776 928.875 591.753 929.549 593.032C930.222 594.312 930.559 595.977 930.559 598.027V598.701ZM924.495 595.845C924.378 594.692 924.065 593.867 923.557 593.369C923.059 592.871 922.4 592.622 921.58 592.622C920.633 592.622 919.876 592.998 919.309 593.75C918.948 594.219 918.719 594.917 918.621 595.845H924.495ZM938.691 583.525V589.443H941.972V593.794H938.691V599.316C938.691 599.98 938.754 600.42 938.881 600.635C939.077 600.967 939.419 601.133 939.907 601.133C940.346 601.133 940.962 601.006 941.753 600.752L942.192 604.868C940.717 605.19 939.34 605.352 938.061 605.352C936.577 605.352 935.483 605.161 934.78 604.78C934.077 604.399 933.554 603.823 933.212 603.052C932.88 602.271 932.714 601.011 932.714 599.272V593.794H930.517V589.443H932.714V586.587L938.691 583.525Z" fill="white"/>
<path d="M801 617H820ZM910 617H929Z" fill="black"/>
<path d="M801 617H820M910 617H929" stroke="white"/>
<path d="M828.614 620V612.842H833.521V614.053H830.06V615.747H833.048V616.958H830.06V620H828.614ZM840.174 620V612.842H841.619V620H840.174ZM850.112 620V614.053H847.988V612.842H853.677V614.053H851.558V620H850.112ZM860.129 620V612.842H861.535L864.465 617.622V612.842H865.808V620H864.357L861.472 615.332V620H860.129ZM872.841 620V612.842H878.148V614.053H874.286V615.64H877.88V616.846H874.286V618.794H878.285V620H872.841ZM884.645 617.671L886.051 617.534C886.135 618.006 886.306 618.353 886.563 618.574C886.824 618.796 887.174 618.906 887.613 618.906C888.079 618.906 888.429 618.809 888.663 618.613C888.901 618.415 889.02 618.184 889.02 617.92C889.02 617.751 888.969 617.607 888.868 617.49C888.771 617.37 888.598 617.266 888.351 617.178C888.181 617.119 887.796 617.015 887.193 616.865C886.419 616.673 885.875 616.437 885.562 616.157C885.123 615.763 884.903 615.283 884.903 614.717C884.903 614.352 885.006 614.012 885.211 613.696C885.419 613.377 885.717 613.135 886.104 612.969C886.495 612.803 886.965 612.72 887.516 612.72C888.414 612.72 889.09 612.917 889.542 613.311C889.998 613.704 890.237 614.23 890.26 614.888L888.814 614.951C888.753 614.583 888.619 614.32 888.414 614.16C888.212 613.997 887.908 613.916 887.501 613.916C887.081 613.916 886.752 614.002 886.515 614.175C886.362 614.285 886.285 614.434 886.285 614.619C886.285 614.788 886.357 614.933 886.5 615.054C886.682 615.207 887.125 615.366 887.828 615.532C888.531 615.698 889.05 615.871 889.386 616.05C889.724 616.226 889.988 616.468 890.177 616.777C890.369 617.083 890.465 617.463 890.465 617.915C890.465 618.325 890.351 618.709 890.123 619.067C889.895 619.425 889.573 619.692 889.156 619.868C888.74 620.041 888.22 620.127 887.599 620.127C886.694 620.127 885.999 619.919 885.514 619.502C885.029 619.082 884.739 618.472 884.645 617.671ZM896.814 617.671L898.221 617.534C898.305 618.006 898.476 618.353 898.733 618.574C898.994 618.796 899.344 618.906 899.783 618.906C900.249 618.906 900.599 618.809 900.833 618.613C901.071 618.415 901.189 618.184 901.189 617.92C901.189 617.751 901.139 617.607 901.038 617.49C900.94 617.37 900.768 617.266 900.521 617.178C900.351 617.119 899.965 617.015 899.363 616.865C898.589 616.673 898.045 616.437 897.732 616.157C897.293 615.763 897.073 615.283 897.073 614.717C897.073 614.352 897.176 614.012 897.381 613.696C897.589 613.377 897.887 613.135 898.274 612.969C898.665 612.803 899.135 612.72 899.686 612.72C900.584 612.72 901.259 612.917 901.712 613.311C902.168 613.704 902.407 614.23 902.43 614.888L900.984 614.951C900.923 614.583 900.789 614.32 900.584 614.16C900.382 613.997 900.078 613.916 899.671 613.916C899.251 613.916 898.922 614.002 898.685 614.175C898.532 614.285 898.455 614.434 898.455 614.619C898.455 614.788 898.527 614.933 898.67 615.054C898.852 615.207 899.295 615.366 899.998 615.532C900.701 615.698 901.22 615.871 901.556 616.05C901.894 616.226 902.158 616.468 902.347 616.777C902.539 617.083 902.635 617.463 902.635 617.915C902.635 618.325 902.521 618.709 902.293 619.067C902.065 619.425 901.743 619.692 901.326 619.868C900.91 620.041 900.39 620.127 899.769 620.127C898.864 620.127 898.169 619.919 897.684 619.502C897.199 619.082 896.909 618.472 896.814 617.671Z" fill="white"/>
<path d="M91.096 727.456C92.248 728.32 93.22 729.184 94.012 730.048L92.734 731.344C92.032 730.516 91.06 729.616 89.818 728.68L91.096 727.456ZM88.702 732.568H92.86V740.038C93.382 739.57 93.94 739.066 94.534 738.508L95.056 740.488C93.868 741.568 92.608 742.522 91.276 743.386L90.556 741.694C90.862 741.424 91.024 741.082 91.024 740.686V734.368H88.702V732.568ZM95.146 734.728H103.93V736.438C103.426 737.986 102.598 739.336 101.446 740.47C102.562 741.19 103.912 741.82 105.514 742.378L104.506 743.998C102.742 743.278 101.248 742.486 100.06 741.604C98.656 742.594 96.946 743.386 94.894 743.98L93.85 742.396C95.704 741.856 97.27 741.172 98.566 740.344C97.414 739.192 96.604 737.932 96.172 736.528H95.146V734.728ZM97.936 736.528C98.332 737.554 98.98 738.49 99.916 739.318C100.834 738.49 101.536 737.572 102.04 736.528H97.936ZM96.37 727.762H102.85V731.488C102.85 731.884 103.066 732.1 103.516 732.1H105.064V733.81H103.012C101.662 733.81 100.996 733.18 100.996 731.92V729.526H98.224V730.012C98.224 731.884 97.252 733.342 95.344 734.35L94.084 732.91C95.596 732.28 96.37 731.38 96.37 730.21V727.762ZM112.372 732.406H117.016V727.186H118.96V732.406H123.37V734.278H118.96V743.926H117.016V734.278H112.372V732.406ZM109.204 727.33C110.338 728.212 111.31 729.094 112.12 729.958L110.824 731.272C110.14 730.444 109.15 729.562 107.872 728.626L109.204 727.33ZM106.702 732.532H110.986V740.056C111.508 739.606 112.066 739.102 112.66 738.544L113.146 740.47C111.976 741.55 110.734 742.522 109.402 743.386L108.682 741.694C109.006 741.424 109.168 741.1 109.168 740.722V734.332H106.702V732.532ZM124.936 733.666H127.726V729.544C126.88 729.652 126.016 729.742 125.116 729.832L124.774 728.158C127.258 727.978 129.49 727.636 131.452 727.132L132.046 728.716C131.254 728.914 130.426 729.094 129.562 729.256V733.666H131.902V735.43H129.562V736.096C130.426 736.798 131.308 737.59 132.208 738.454L131.128 740.056C130.516 739.228 129.994 738.544 129.562 738.004V743.872H127.726V738.184C127.078 739.462 126.268 740.632 125.296 741.712L124.54 739.822C125.89 738.526 126.88 737.068 127.528 735.43H124.936V733.666ZM132.172 739.21H135.772V737.806H132.73V736.078H135.772V734.512H137.644V736.078H140.704V737.806H137.644V739.21H141.172V740.974H137.644V743.872H135.772V740.974H132.172V739.21ZM130.66 729.724L132.208 730.138C131.956 731.362 131.614 732.424 131.218 733.342L129.742 732.802C130.102 731.974 130.408 730.948 130.66 729.724ZM126.43 730.03C126.808 730.876 127.15 731.776 127.438 732.748L126.016 733.378C125.692 732.298 125.314 731.362 124.918 730.552L126.43 730.03ZM133.216 729.472H132.424V727.78H140.434V729.364C140.092 730.57 139.426 731.614 138.454 732.514C139.282 732.892 140.218 733.252 141.298 733.594L140.416 735.196C139.012 734.764 137.824 734.242 136.834 733.666C135.736 734.278 134.422 734.764 132.91 735.16L132.01 733.576C133.234 733.288 134.314 732.91 135.232 732.478C134.26 731.596 133.594 730.588 133.216 729.472ZM136.762 731.56C137.554 730.948 138.13 730.246 138.526 729.472H134.998C135.286 730.228 135.862 730.912 136.762 731.56ZM149.992 727.186C151.036 728.464 151.972 729.868 152.782 731.38L151.054 732.244C150.208 730.66 149.272 729.238 148.228 727.978L149.992 727.186ZM155.536 728.086L157.408 728.5C156.616 732.604 155.032 735.952 152.62 738.562C154.51 740.038 156.706 741.19 159.226 742.054L158.038 743.8C155.446 742.846 153.16 741.568 151.198 739.948C149.2 741.658 146.788 742.972 143.944 743.908L142.864 742.18C145.528 741.334 147.796 740.128 149.668 738.58C147.436 736.402 145.654 733.738 144.322 730.606L146.05 729.634C147.238 732.658 148.912 735.196 151.072 737.248C153.322 734.854 154.816 731.794 155.536 728.086Z" fill="#24262A"/>
<path d="M201 705V766Z" fill="black"/>
<path d="M201 705V766" stroke="#C9C9C9"/>
<path d="M254 734L271.429 713.6L288.857 734H254Z" fill="#25282D"/>
<path d="M269.429 734L291.714 704L314 734H269.429Z" fill="#111318"/>
<path d="M255.92 757.03C256.85 758.125 257.72 759.22 258.53 760.315C259.01 758.875 259.325 757.33 259.445 755.68H255.065V754.645H260.48V755.47C260.36 757.66 259.97 759.625 259.295 761.38C259.97 762.34 260.585 763.315 261.155 764.275L260.33 765.115C259.88 764.275 259.355 763.435 258.785 762.565C257.945 764.26 256.82 765.745 255.38 767.005L254.645 766.165C256.115 764.875 257.255 763.315 258.065 761.515C257.195 760.3 256.22 759.055 255.14 757.78L255.92 757.03ZM261.41 754.645H267.575V755.605C267.245 758.035 266.435 760.315 265.13 762.475C265.97 763.855 267.035 765.19 268.355 766.495L267.605 767.38C266.345 766.09 265.295 764.785 264.485 763.465C263.525 764.83 262.37 766.135 261.02 767.38L260.285 766.48C261.725 765.205 262.925 763.855 263.885 762.445C262.7 760.255 262.04 758.005 261.905 755.68H261.41V754.645ZM262.88 755.68C263 757.66 263.555 759.565 264.53 761.425C265.55 759.625 266.225 757.705 266.555 755.68H262.88ZM269.975 755.62H270.86V764.605L271.94 764.47V753.865H272.81V764.335C273.17 764.275 273.53 764.2 273.875 764.14V755.62H274.745V759.07C276.11 758.8 277.265 758.455 278.225 758.035C277.655 757.615 277.19 757.18 276.83 756.7C276.53 757 276.23 757.27 275.9 757.54L275.24 756.76C276.29 755.98 277.16 754.96 277.835 753.7L278.795 753.91C278.615 754.24 278.435 754.57 278.255 754.87H282.17V755.725C281.75 756.595 281.09 757.345 280.205 757.99C281.105 758.365 282.185 758.665 283.415 758.875L283.04 759.835C281.48 759.55 280.205 759.145 279.185 758.62C278.09 759.19 276.755 759.67 275.195 760.03L274.745 759.19V765.85H273.875V765.085C272.765 765.295 271.52 765.475 270.14 765.625L269.72 764.74C269.885 764.68 269.975 764.575 269.975 764.44V755.62ZM275.63 760.6H278.63V759.535H279.695V760.6H282.65V761.56H279.695V762.79H282.32V763.75H279.695V764.95H283.145V765.895H279.695V767.515H278.63V765.895H275.255V764.95H278.63V763.75H275.9V762.79H278.63V761.56H275.63V760.6ZM279.2 757.51C279.995 757.015 280.61 756.445 281.03 755.8H277.625L277.445 756.025C277.865 756.595 278.45 757.09 279.2 757.51ZM297.68 754.63V767.5H296.63V766.57H291.71V767.515H290.675V754.63H297.68ZM291.71 765.55H296.63V762.895H291.71V765.55ZM291.71 761.89H296.63V759.235H291.71V761.89ZM291.71 758.23H296.63V755.65H291.71V758.23ZM288.035 759.655V767.485H286.97V759.88C286.46 761.32 285.815 762.61 285.005 763.78L284.585 762.715C285.68 761.26 286.46 759.595 286.94 757.72H284.855V756.685H286.97V753.76H288.035V756.685H289.97V757.72H288.035V758.515C288.725 759.235 289.415 760.045 290.105 760.93L289.52 761.8C288.95 760.93 288.455 760.21 288.035 759.655ZM300.785 753.985C301.79 754.765 302.63 755.545 303.32 756.325L302.57 757.075C301.955 756.325 301.115 755.53 300.05 754.69L300.785 753.985ZM309.635 767.245C308.81 767.245 307.91 767.23 306.95 767.215C305.99 767.2 305.195 767.11 304.595 766.96C303.995 766.78 303.47 766.42 303.005 765.88C302.795 765.625 302.6 765.505 302.42 765.505C302.06 765.505 301.475 766.165 300.665 767.515L299.855 766.795C300.635 765.565 301.34 764.815 301.94 764.545V759.94H299.81V758.95H302.945V764.605C303.065 764.695 303.185 764.8 303.32 764.95C303.68 765.37 304.07 765.7 304.49 765.91C304.955 766.105 305.63 766.21 306.53 766.24C307.325 766.255 308.315 766.27 309.485 766.27C310.19 766.27 310.91 766.255 311.645 766.255C312.365 766.24 312.935 766.225 313.325 766.195L313.07 767.245H309.635ZM305.015 754.225H312.065V759.13H309.035V760.165H312.755V764.2C312.755 765.055 312.335 765.49 311.525 765.49H310.16L309.935 764.62L311.225 764.665C311.6 764.665 311.795 764.44 311.795 764.005V761.065H308.93V762.865C309.35 762.805 309.725 762.73 310.085 762.67C309.98 762.31 309.875 761.965 309.755 761.635L310.475 761.41C310.745 762.16 311 763.03 311.225 764.005L310.475 764.185C310.415 763.915 310.355 763.675 310.295 763.435C309.245 763.675 307.79 763.885 305.915 764.035L305.78 763.12C306.59 763.09 307.34 763.03 308.03 762.97V761.065H305.345V765.37H304.37V760.165H308.03V759.13H305.015V754.225ZM311.075 758.32V757.105H309.035V758.32H311.075ZM308.03 758.32V757.105H305.99V758.32H308.03ZM305.99 756.31H308.03V755.065H305.99V756.31ZM309.035 755.065V756.31H311.075V755.065H309.035Z" fill="#868686"/>
<path d="M246.032 776.784V787.188H245.168V786.408H238.856V787.212H237.98V776.784H246.032ZM238.856 785.568H245.168V783.312H238.856V785.568ZM238.856 782.52H245.168V780.408H238.856V782.52ZM238.856 779.616H245.168V777.624H238.856V779.616ZM250.292 776.232H251.144V778.5H252.536V779.328H251.144V780.252C251.732 780.852 252.32 781.524 252.908 782.256L252.416 782.988C251.924 782.232 251.504 781.632 251.144 781.176V787.188H250.292V781.212C249.908 782.34 249.416 783.372 248.816 784.308L248.444 783.372C249.308 782.196 249.92 780.84 250.292 779.328H248.828V778.5H250.292V776.232ZM253.832 781.656L254.624 781.836C254.24 783.516 253.676 784.956 252.956 786.18L252.212 785.7C252.956 784.488 253.496 783.144 253.832 781.656ZM258.176 781.596C258.68 782.952 259.112 784.404 259.472 785.94L258.692 786.288C258.296 784.62 257.864 783.144 257.396 781.848L258.176 781.596ZM255.488 787.068H254.264L254.096 786.264C254.48 786.288 254.84 786.312 255.188 786.312C255.512 786.312 255.68 786.132 255.68 785.784V780.66H252.752V779.832H259.484V780.66H256.544V786C256.544 786.708 256.184 787.068 255.488 787.068ZM253.388 776.916H258.86V777.732H253.388V776.916ZM262.712 776.148L263.564 776.22L263.396 777.828H270.668V778.656H263.312L263.108 780.612H269.852C269.852 783.876 269.624 785.76 269.168 786.276C268.724 786.768 267.764 787.02 266.3 787.02C265.916 787.02 265.52 786.996 265.112 786.972L264.884 786.18C265.472 786.228 265.88 786.264 266.12 786.264C267.476 786.264 268.292 786.036 268.556 785.58C268.832 785.088 268.976 783.696 268.976 781.416H262.148L262.712 776.148ZM260.6 783.348H267.38V784.176H260.6V783.348ZM272.708 786.024H277.664V784.38H273.752V783.552H277.664V782.472H278.54V783.552H282.452V784.38H278.54V786.024H283.22V786.852H272.708V786.024ZM275.372 776.28H276.2V782.484H275.372V776.28ZM273.2 777.18H274.04V781.86H273.2V777.18ZM277.184 776.868H282.284V777.612C281.936 778.668 281.36 779.568 280.544 780.312C281.3 780.876 282.212 781.308 283.28 781.596L282.872 782.34C281.684 781.98 280.7 781.488 279.908 780.852C279.14 781.416 278.216 781.884 277.136 782.244L276.728 781.5C277.736 781.188 278.588 780.792 279.308 780.3C278.6 779.568 278.096 778.692 277.784 777.66H277.184V776.868ZM278.54 777.66C278.852 778.5 279.32 779.22 279.944 779.808C280.616 779.196 281.132 778.476 281.48 777.66H278.54ZM291.548 776.232H292.4V777.48H294.86V778.26H292.4V779.664H295.316V780.48H288.764V779.664H291.548V778.26H289.196V777.48H291.548V776.232ZM288.572 782.016H292.988V781.092H293.852V782.016H295.328V782.82H293.852V786.048C293.852 786.756 293.492 787.116 292.796 787.116H291.2L291.008 786.276C291.524 786.3 292.016 786.324 292.484 786.324C292.82 786.324 292.988 786.156 292.988 785.832V782.82H288.572V782.016ZM286.004 787.092H284.948L284.768 786.264C285.092 786.3 285.404 786.324 285.704 786.324C286.016 786.324 286.184 786.144 286.184 785.796V782.952C285.716 783.12 285.248 783.276 284.792 783.42L284.576 782.556C285.128 782.424 285.656 782.268 286.184 782.076V779.328H284.708V778.5H286.184V776.352H287.036V778.5H288.284V779.328H287.036V781.74C287.468 781.548 287.888 781.344 288.296 781.128V782.016C287.888 782.232 287.468 782.424 287.036 782.604V786.012C287.036 786.732 286.688 787.092 286.004 787.092ZM289.82 783.384C290.444 784.116 290.924 784.764 291.26 785.316L290.576 785.796C290.216 785.196 289.736 784.536 289.124 783.804L289.82 783.384ZM300.848 778.272V786.456H300.008V785.772H297.824V786.804H296.984V778.272H298.1C298.34 777.6 298.508 776.904 298.616 776.184L299.48 776.304C299.336 777.012 299.156 777.672 298.916 778.272H300.848ZM297.824 784.968H300.008V782.34H297.824V784.968ZM297.824 781.56H300.008V779.088H297.824V781.56ZM302.936 781.056C303.8 782.052 304.448 782.928 304.904 783.672L304.22 784.152C303.728 783.36 303.068 782.472 302.24 781.488L302.936 781.056ZM307.052 778.284C307.052 782.268 306.992 784.74 306.872 785.676C306.752 786.588 306.2 787.056 305.192 787.056C304.952 787.056 304.544 787.032 303.968 787.008L303.764 786.216C304.268 786.24 304.7 786.252 305.072 786.252C305.636 786.252 305.96 785.94 306.056 785.328C306.128 784.656 306.176 782.58 306.2 779.124H302.9C302.564 779.88 302.168 780.564 301.7 781.176L301.184 780.492C302.024 779.316 302.588 777.876 302.9 776.172L303.752 776.28C303.608 776.988 303.44 777.66 303.224 778.284H307.052ZM313.496 785.916H319.316V786.792H312.632V776.7H319.208V777.54H313.496V785.916ZM309.464 776.412C310.388 777.024 311.156 777.636 311.78 778.236L311.168 778.848C310.616 778.272 309.848 777.66 308.864 777.012L309.464 776.412ZM309.224 779.364C310.088 779.94 310.808 780.528 311.408 781.104L310.784 781.728C310.256 781.164 309.536 780.576 308.612 779.952L309.224 779.364ZM310.652 782.892L311.456 783.204C310.904 784.608 310.304 785.928 309.644 787.152L308.768 786.756C309.488 785.496 310.124 784.212 310.652 782.892ZM325.652 783.024C324.512 783.144 323.264 783.216 321.92 783.216L321.668 782.484C324.86 782.472 327.512 782.112 329.612 781.404L329.996 782.064C329.312 782.328 328.556 782.544 327.74 782.712C327.896 783.3 328.16 783.828 328.52 784.308C329.216 783.9 329.792 783.48 330.248 783.036L330.716 783.636C330.272 784.044 329.696 784.44 329 784.848C329.588 785.436 330.344 785.94 331.28 786.348L330.836 787.08C328.784 786.048 327.536 784.632 327.08 782.832L326.444 782.928V787.176H325.652V783.024ZM320.936 776.64H326.384V777.324H325.532V780.432C325.82 780.384 326.108 780.336 326.372 780.3V780.948C326.084 780.996 325.808 781.032 325.532 781.08V781.848H324.776V781.188C323.54 781.356 322.196 781.512 320.756 781.632L320.672 780.912C321.08 780.876 321.464 780.84 321.848 780.816V777.324H320.936V776.64ZM322.604 780.756C323.372 780.684 324.104 780.6 324.776 780.528V779.928H322.604V780.756ZM322.604 779.328H324.776V778.644H322.604V779.328ZM322.604 778.044H324.776V777.324H322.604V778.044ZM327.188 778.176C327.836 778.584 328.436 778.98 328.988 779.388C329.372 778.908 329.696 778.356 329.972 777.756H326.72V777.012H330.848V777.648C330.512 778.512 330.092 779.256 329.612 779.856C330.14 780.264 330.62 780.66 331.052 781.068L330.488 781.62C330.08 781.212 329.624 780.816 329.108 780.408C328.472 781.02 327.74 781.464 326.924 781.752L326.576 781.044C327.296 780.816 327.932 780.444 328.484 779.94C327.932 779.532 327.32 779.112 326.66 778.692L327.188 778.176ZM323.516 783.288L324.164 783.684C323.78 784.032 323.384 784.32 322.976 784.548C322.544 784.788 321.968 785.028 321.272 785.268L320.852 784.608C321.428 784.464 321.944 784.272 322.412 784.032C322.808 783.816 323.18 783.576 323.516 783.288ZM324.452 784.608L325.1 785.004C324.596 785.448 324.092 785.808 323.576 786.096C323.024 786.408 322.304 786.708 321.416 787.02L320.996 786.336C321.74 786.144 322.4 785.892 323 785.58C323.528 785.304 324.008 784.98 324.452 784.608Z" fill="#AAAAAA"/>
<path d="M364.962 727.107V722.2H360.092V720.149H364.962V715.278H367.038V720.149H371.908V722.2H367.038V727.107H364.962Z" fill="#C9C9C9"/>
<path d="M448 703L466 720H457V738H439V720H430L448 703Z" fill="url(#paint18_linear_2008_770)"/>
<path d="M422.755 759.085H428.29V764.335H422.755V759.085ZM427.24 763.315V760.105H423.805V763.315H427.24ZM424.525 753.7L425.65 753.85C425.47 754.6 425.215 755.29 424.885 755.935H431.5V765.94C431.5 766.915 431.035 767.41 430.135 767.41H427.885L427.585 766.315L429.775 766.36C430.195 766.36 430.42 766.135 430.42 765.7V756.97H420.7V767.47H419.62V755.935H423.745C424.105 755.215 424.36 754.48 424.525 753.7ZM439.24 753.745H440.35V758.38H445.915V759.43H440.35V765.85H447.19V766.9H433.84V765.85H439.24V753.745ZM454.255 753.79H455.365V755.29C455.35 755.815 455.335 756.325 455.305 756.82H461.05C460.99 759.4 460.9 761.5 460.75 763.105C460.6 764.68 460.345 765.79 459.985 766.42C459.625 767.02 459.055 767.335 458.275 767.395H456.31L456.01 766.345C456.61 766.375 457.195 766.39 457.735 766.39C458.59 766.39 459.145 765.865 459.415 764.83C459.685 763.735 459.865 761.41 459.955 757.87H455.215C454.99 760 454.555 761.77 453.91 763.21C453.01 765.04 451.57 766.465 449.56 767.485L448.975 766.57C450.94 765.52 452.32 764.11 453.1 762.37C453.595 761.125 453.925 759.625 454.105 757.87H449.74V756.82H454.195C454.225 756.31 454.24 755.8 454.255 755.29V753.79ZM465.295 760.03H475.735V763.855H471.025V764.695H476.11V765.415H471.025V766.3H477.205V767.14H463.795V766.3H469.945V765.415H464.92V764.695H469.945V763.855H465.295V760.03ZM474.7 763.18V762.265H471.025V763.18H474.7ZM469.945 763.18V762.265H466.33V763.18H469.945ZM466.33 761.635H469.945V760.705H466.33V761.635ZM471.025 760.705V761.635H474.7V760.705H471.025ZM465.625 753.985H475.42V757.69H465.625V753.985ZM474.37 757.045V756.16H466.675V757.045H474.37ZM466.675 755.515H474.37V754.645H466.675V755.515ZM463.78 758.47H477.22V759.28H463.78V758.47Z" fill="#868686"/>
<path d="M401.02 778.608C402.448 779.244 403.756 780.012 404.944 780.912L404.488 781.608C403.216 780.612 401.92 779.82 400.6 779.244L401.02 778.608ZM398.968 778.572L399.484 779.16C398.392 780.108 397.024 780.9 395.368 781.524L394.996 780.732C396.604 780.192 397.924 779.472 398.968 778.572ZM401.776 780.684C402.328 781.224 402.748 781.692 403.036 782.1L402.412 782.532H405.16V783.336H400.684C401.692 784.848 403.288 785.88 405.472 786.432L405.004 787.176C402.64 786.504 400.9 785.232 399.784 783.336H399.724C399.484 783.936 399.208 784.476 398.872 784.932C398.152 785.916 396.88 786.696 395.056 787.272L394.708 786.468C396.316 785.976 397.468 785.28 398.176 784.368C398.404 784.056 398.608 783.72 398.776 783.336H394.852V782.532H399.076C399.268 781.908 399.4 781.212 399.472 780.432L400.336 780.504C400.264 781.236 400.156 781.908 399.988 782.532H402.388C402.076 782.088 401.668 781.608 401.152 781.08L401.776 780.684ZM405.04 777.24V779.316H404.2V778.032H395.788V779.46H394.948V777.24H399.532C399.388 776.88 399.232 776.556 399.052 776.256L399.952 776.112C400.096 776.448 400.24 776.82 400.384 777.24H405.04ZM406.864 776.868H410.644V777.708H408.88C408.724 778.68 408.496 779.58 408.208 780.42H410.32V785.772H408.388V786.804H407.608V781.86C407.392 782.292 407.152 782.688 406.912 783.072L406.456 782.352C407.272 781.008 407.812 779.46 408.076 777.708H406.864V776.868ZM408.388 785.004H409.54V781.188H408.388V785.004ZM416.344 778.512H414.688V780.912H416.512V781.632C416.248 782.868 415.768 783.936 415.084 784.836C415.756 785.46 416.572 786 417.544 786.456L417.076 787.2C416.08 786.684 415.24 786.096 414.568 785.436C413.86 786.168 412.996 786.768 411.964 787.248L411.424 786.576C412.48 786.132 413.344 785.556 414.016 784.848C413.224 783.924 412.684 782.88 412.42 781.704H412.06C411.964 783.828 411.472 785.652 410.584 787.188L409.972 786.648C410.8 785.184 411.232 783.336 411.28 781.08V777.708H413.86V776.196H414.688V777.708H417.196V778.128C417.064 778.824 416.86 779.508 416.596 780.18L415.84 779.964C416.032 779.532 416.2 779.04 416.344 778.512ZM413.164 781.704C413.404 782.664 413.86 783.516 414.52 784.26C415.072 783.516 415.456 782.664 415.696 781.704H413.164ZM412.072 780.912H413.86V778.512H412.072V780.912ZM428.032 777.624V787.188H427.156V786.444H420.844V787.188H419.968V777.624H422.536C422.8 777.144 423.004 776.664 423.124 776.16L424 776.28C423.868 776.76 423.676 777.216 423.436 777.624H428.032ZM420.844 785.616H427.156V783.66H420.844V785.616ZM420.844 782.868H427.156V781.032H420.844V782.868ZM420.844 780.24H427.156V778.452H420.844V780.24ZM436.132 781.776V782.652C435.436 782.88 434.716 783.096 433.948 783.3V786C433.948 786.696 433.576 787.044 432.844 787.044H431.512L431.332 786.216C431.752 786.252 432.16 786.276 432.556 786.276C432.892 786.276 433.06 786.108 433.06 785.784V783.504C432.292 783.672 431.512 783.828 430.696 783.96L430.576 783.084C431.452 782.94 432.28 782.796 433.06 782.628V780.264H430.588V779.436H433.06V777.828C432.424 777.96 431.764 778.068 431.08 778.164L430.9 777.336C432.604 777.144 434.116 776.796 435.436 776.28L435.724 777.096C435.172 777.288 434.572 777.468 433.948 777.636V779.436H436.828C436.756 778.464 436.72 777.396 436.72 776.22H437.584C437.596 777.432 437.632 778.5 437.704 779.436H441.412V780.264H437.776C437.86 781.128 437.968 781.848 438.112 782.436C438.184 782.748 438.268 783.024 438.352 783.288C438.928 782.592 439.444 781.8 439.876 780.912L440.62 781.308C440.068 782.436 439.42 783.396 438.664 784.2C438.832 784.608 439 784.956 439.192 785.232C439.576 785.808 439.888 786.108 440.116 786.108C440.356 786.096 440.56 785.424 440.752 784.08L441.508 784.476C441.22 786.18 440.8 787.032 440.248 787.032C439.756 787.032 439.24 786.672 438.688 785.952C438.448 785.628 438.22 785.244 438.028 784.812C437.164 785.58 436.18 786.18 435.088 786.612L434.62 785.868C435.796 785.436 436.816 784.8 437.692 783.972C437.548 783.564 437.416 783.12 437.296 782.652C437.128 781.968 436.996 781.176 436.9 780.264H433.948V782.424C434.728 782.22 435.46 782.004 436.132 781.776ZM438.904 776.352C439.768 776.928 440.5 777.492 441.1 778.068L440.476 778.692C439.948 778.14 439.24 777.54 438.328 776.904L438.904 776.352ZM444.232 784.572C444.496 784.572 444.724 784.68 444.892 784.908C445.048 785.124 445.132 785.4 445.132 785.748C445.132 786.276 444.976 786.744 444.664 787.152C444.352 787.536 443.932 787.8 443.428 787.932V787.344C443.74 787.236 443.992 787.056 444.184 786.816C444.352 786.564 444.448 786.3 444.448 786.012C444.4 786.036 444.304 786.06 444.184 786.06C443.98 786.06 443.812 785.988 443.668 785.844C443.524 785.7 443.452 785.52 443.452 785.316C443.452 785.088 443.524 784.908 443.668 784.776C443.812 784.632 443.992 784.572 444.232 784.572ZM461.548 776.232H462.4V777.48H464.86V778.26H462.4V779.664H465.316V780.48H458.764V779.664H461.548V778.26H459.196V777.48H461.548V776.232ZM458.572 782.016H462.988V781.092H463.852V782.016H465.328V782.82H463.852V786.048C463.852 786.756 463.492 787.116 462.796 787.116H461.2L461.008 786.276C461.524 786.3 462.016 786.324 462.484 786.324C462.82 786.324 462.988 786.156 462.988 785.832V782.82H458.572V782.016ZM456.004 787.092H454.948L454.768 786.264C455.092 786.3 455.404 786.324 455.704 786.324C456.016 786.324 456.184 786.144 456.184 785.796V782.952C455.716 783.12 455.248 783.276 454.792 783.42L454.576 782.556C455.128 782.424 455.656 782.268 456.184 782.076V779.328H454.708V778.5H456.184V776.352H457.036V778.5H458.284V779.328H457.036V781.74C457.468 781.548 457.888 781.344 458.296 781.128V782.016C457.888 782.232 457.468 782.424 457.036 782.604V786.012C457.036 786.732 456.688 787.092 456.004 787.092ZM459.82 783.384C460.444 784.116 460.924 784.764 461.26 785.316L460.576 785.796C460.216 785.196 459.736 784.536 459.124 783.804L459.82 783.384ZM470.32 784.668V785.484C469.276 785.916 468.1 786.264 466.78 786.528L466.672 785.688C468.064 785.436 469.276 785.1 470.32 784.668ZM468.496 776.196L469.312 776.52C468.76 778.008 468.196 779.208 467.62 780.108C468.112 780.048 468.604 779.964 469.108 779.868C469.324 779.472 469.54 779.052 469.768 778.608L470.56 778.908C469.516 780.828 468.652 782.208 467.98 783.024C468.7 782.88 469.432 782.676 470.152 782.412V783.192C469.024 783.576 467.956 783.828 466.936 783.972L466.696 783.18C466.852 783.132 466.984 783.048 467.092 782.94C467.524 782.484 468.052 781.728 468.676 780.66C468.064 780.768 467.44 780.864 466.816 780.96L466.6 780.168C466.732 780.12 466.852 780.012 466.96 779.856C467.548 778.788 468.064 777.564 468.496 776.196ZM471.172 776.964H473.584V776.172H474.424V776.964H477.004V777.744H474.424V778.836H477.172V779.376C477.004 780.144 476.776 780.9 476.488 781.644L475.66 781.404C475.912 780.876 476.116 780.276 476.284 779.628H470.8V778.836H473.584V777.744H471.172V776.964ZM470.536 783.156H473.86C473.896 782.892 473.92 782.616 473.932 782.34V780.12H474.772V782.34C474.76 782.628 474.736 782.892 474.712 783.156H477.508V783.948H474.556C474.496 784.164 474.436 784.356 474.364 784.548C475.54 785.1 476.62 785.748 477.592 786.492L477.112 787.236C476.104 786.396 475.084 785.712 474.052 785.184C473.98 785.304 473.896 785.412 473.824 785.52C473.236 786.252 472.288 786.828 470.968 787.248L470.488 786.492C471.772 786.108 472.66 785.592 473.164 784.944C473.38 784.644 473.548 784.308 473.668 783.948H470.536V783.156ZM471.004 781.2C471.664 781.512 472.264 781.908 472.816 782.364L472.408 783C471.82 782.496 471.22 782.088 470.596 781.788L471.004 781.2ZM471.928 779.964C472.54 780.252 473.104 780.624 473.62 781.056L473.212 781.668C472.66 781.188 472.108 780.804 471.544 780.54L471.928 779.964ZM479.536 776.388C480.34 777.012 481.024 777.624 481.576 778.248L480.952 778.86C480.472 778.272 479.8 777.636 478.948 776.952L479.536 776.388ZM486.508 786.984C485.86 786.984 485.152 786.972 484.396 786.96C483.628 786.948 483.016 786.876 482.536 786.744C482.068 786.6 481.648 786.3 481.276 785.868C481.12 785.664 480.964 785.568 480.82 785.568C480.532 785.568 480.064 786.12 479.404 787.224L478.756 786.636C479.392 785.628 479.956 785.016 480.448 784.8V781.152H478.732V780.36H481.252V784.848C481.348 784.92 481.444 785.016 481.54 785.124C481.828 785.472 482.128 785.724 482.464 785.88C482.824 786.048 483.364 786.144 484.06 786.168C484.684 786.18 485.464 786.192 486.388 786.192C486.952 786.192 487.528 786.18 488.116 786.168C488.692 786.156 489.148 786.144 489.46 786.12L489.256 786.984H486.508ZM482.404 778.092H483.82V776.184H484.648V778.092H486.544V776.196H487.384V778.092H488.908V778.896H487.384V781.284H489.292V782.1H487.384V785.544H486.544V782.1H484.408C484.096 783.54 483.472 784.608 482.548 785.304L482.032 784.608C482.788 784.068 483.304 783.228 483.568 782.1H481.984V781.284H483.724C483.784 780.828 483.82 780.348 483.82 779.844V778.896H482.404V778.092ZM484.648 778.896V779.652C484.648 780.228 484.612 780.78 484.552 781.284H486.544V778.896H484.648ZM495.628 776.172H496.504V777.624H500.14V778.452H496.504V780.108H501.328V780.948H496.564V784.572H495.7V780.948H490.672V780.108H492.508V777.108H493.384V780.108H495.628V776.172ZM499.54 781.824L500.332 782.244C498.82 785.568 495.916 787.236 491.644 787.248L491.332 786.42C495.484 786.42 498.22 784.884 499.54 781.824ZM493.552 781.488L494.164 782.04C493.444 783.156 492.568 784.128 491.512 784.956L490.972 784.26C491.992 783.468 492.856 782.544 493.552 781.488Z" fill="#AAAAAA"/>
<path d="M529.962 727.107V722.2H525.092V720.149H529.962V715.278H532.038V720.149H536.908V722.2H532.038V727.107H529.962Z" fill="#C9C9C9"/>
<path d="M592 734L609.429 713.6L626.857 734H592Z" fill="#25282D"/>
<path d="M607.428 734L629.714 704L652 734H607.428Z" fill="#111318"/>
<path d="M593.065 756.07L592.855 755.035C594.58 754.855 596.11 754.525 597.43 754.03L597.82 755.035C597.235 755.23 596.62 755.41 595.975 755.56V757.855H597.745V758.89H595.975V759.67C596.635 760.33 597.295 761.065 597.97 761.89L597.37 762.805C596.83 761.905 596.365 761.185 595.975 760.645V767.5H594.94V760.735C594.46 762.085 593.815 763.315 593.035 764.425L592.585 763.255C593.65 761.965 594.4 760.51 594.85 758.89H592.78V757.855H594.94V755.785C594.325 755.89 593.695 755.98 593.065 756.07ZM605.215 762.565H598.54V761.635H604.18V760.495H598.75V759.595H604.18V758.485H598.63V757.63C598.48 757.75 598.315 757.87 598.165 757.975L597.535 757.165C598.975 756.205 599.95 755.05 600.46 753.685L601.525 753.805C601.405 754.15 601.255 754.48 601.09 754.78H604.48V755.575C604.03 756.355 603.58 757 603.13 757.525H605.215V762.565ZM600.505 755.725C600.025 756.385 599.455 756.985 598.78 757.525H601.96C602.41 757.015 602.845 756.415 603.28 755.725H600.505ZM605.05 763.285C605.59 764.215 606.055 765.205 606.46 766.255L605.575 766.645C605.125 765.49 604.645 764.47 604.12 763.585L605.05 763.285ZM598.24 763.54L599.17 763.72C598.915 764.935 598.555 765.985 598.09 766.885L597.22 766.33C597.685 765.49 598.03 764.56 598.24 763.54ZM602.98 767.365H601.03C600.19 767.365 599.77 766.9 599.77 766V763.3H600.745V765.805C600.745 766.21 600.94 766.42 601.36 766.42H602.8C603.04 766.42 603.22 766.36 603.325 766.255C603.46 766.12 603.55 765.715 603.595 765.025L604.525 765.31C604.435 766.285 604.27 766.885 604.015 767.095C603.805 767.275 603.46 767.365 602.98 767.365ZM601.99 763.045C602.56 763.72 602.995 764.32 603.295 764.83L602.515 765.37C602.2 764.815 601.765 764.2 601.21 763.54L601.99 763.045ZM610.315 757.72H613.96V756.1H615.04V757.72H618.685V758.74H615.04V760.375H617.605V764.5H611.41V760.375H613.96V758.74H610.315V757.72ZM616.585 763.555V761.305H612.43V763.555H616.585ZM620.56 754.405V767.5H619.48V766.825H609.52V767.5H608.455V754.405H620.56ZM609.52 765.805H619.48V755.425H609.52V765.805ZM622.825 754.645H636.205V755.695H634.225V765.895C634.225 766.885 633.745 767.395 632.785 767.395H630.28L630.04 766.345C630.865 766.375 631.66 766.405 632.41 766.405C632.89 766.405 633.145 766.135 633.145 765.625V755.695H622.825V754.645ZM630.4 757.99V763.495H625.615V764.815H624.565V757.99H630.4ZM625.615 762.505H629.365V758.965H625.615V762.505ZM639.475 758.275H649.51V760.855H646.315V761.815H650.62V762.655H646.315V763.585H650.05V764.38H646.315V765.34H651.13V766.21H646.315V767.56H645.265V760.855H643.675V767.56H642.625V766.21H637.885V765.34H642.625V764.365H638.74V763.57H642.625V762.655H638.29V761.815H642.625V760.855H639.475V758.275ZM648.46 760.075V759.055H640.525V760.075H648.46ZM640.45 755.575C640.06 755.965 639.655 756.31 639.25 756.595H644.08V755.575H640.45ZM639.115 756.595L638.545 755.92C639.415 755.365 640.12 754.645 640.675 753.775L641.635 754C641.485 754.27 641.32 754.51 641.14 754.75H644.08V753.685H645.1V754.75H649.855V755.575H645.1V756.595H651.145V757.435H637.855V756.595H639.115Z" fill="#868686"/>
<path d="M568.612 779.856H572.044C572.176 779.364 572.296 778.872 572.416 778.368H569.428V777.564H572.596C572.704 777.072 572.8 776.592 572.896 776.112L573.784 776.184C573.688 776.664 573.604 777.132 573.508 777.564H578.68V778.368H573.328C573.208 778.896 573.088 779.388 572.968 779.856H579.388V780.696H572.74C572.572 781.26 572.392 781.788 572.224 782.28H577.936V783.024C577.36 783.912 576.46 784.812 575.224 785.7C575.944 785.964 576.64 786.264 577.3 786.576L576.82 787.332C575.02 786.444 573.16 785.748 571.252 785.232L571.708 784.56C572.608 784.8 573.472 785.076 574.3 785.364C575.404 784.644 576.28 783.876 576.916 783.084H570.988C571.276 782.316 571.552 781.524 571.804 780.696H568.612V779.856ZM584.26 776.316H585.136V785.856H586.84V776.316H587.716V785.856H591.316V786.696H580.684V785.856H584.26V776.316ZM590.224 778.5L590.992 778.716C590.512 780.804 589.912 782.628 589.18 784.2L588.4 783.924C589.096 782.508 589.708 780.696 590.224 778.5ZM581.716 778.476C582.34 780.096 582.904 781.956 583.396 784.056L582.604 784.26C582.172 782.34 581.632 780.492 580.984 778.716L581.716 778.476ZM593.02 776.688H596.584V777.36C596.224 778.452 595.804 779.592 595.324 780.78C596.104 781.8 596.524 782.724 596.584 783.552C596.572 784.104 596.452 784.5 596.224 784.74C595.888 785.04 595.312 785.196 594.484 785.208L594.196 784.332C594.388 784.356 594.544 784.38 594.664 784.38C595.096 784.356 595.384 784.284 595.528 784.164C595.672 784.044 595.744 783.84 595.744 783.552C595.744 782.76 595.312 781.884 594.46 780.912C595 779.64 595.42 778.5 595.732 777.48H593.86V787.152H593.02V776.688ZM597.016 777.384H599.62C599.5 776.976 599.368 776.616 599.224 776.28L600.124 776.124C600.244 776.508 600.352 776.928 600.46 777.384H603.028V778.2H597.016V777.384ZM596.668 780.66H598.528C598.312 780.06 598.048 779.508 597.748 778.992L598.516 778.704C598.804 779.244 599.08 779.892 599.32 780.66H600.916C601.24 780.036 601.516 779.376 601.744 778.668L602.524 778.932C602.284 779.58 602.02 780.156 601.732 780.66H603.424V781.476H596.668V780.66ZM602.584 782.652V787.152H601.768V786.48H598.3V787.152H597.472V782.652H602.584ZM598.3 785.676H601.768V783.468H598.3V785.676ZM609.196 776.88C609.58 777.588 609.904 778.404 610.192 779.316L609.388 779.52C609.124 778.704 608.788 777.912 608.392 777.144L609.196 776.88ZM613.996 776.652L614.824 776.868C614.536 777.9 614.176 778.8 613.72 779.568L612.928 779.292C613.336 778.596 613.696 777.72 613.996 776.652ZM608.092 780.12H611.128V776.22H612.016V780.12H615.148V780.948H612.016V782.916H615.472V783.756H612.016V787.2H611.128V783.756H607.732V782.916H611.128V780.948H608.092V780.12ZM607.096 776.136L607.912 776.508C607.6 777.456 607.216 778.344 606.76 779.184V787.224H605.908V780.528C605.536 781.044 605.14 781.536 604.708 782.004L604.42 781.08C605.644 779.64 606.544 777.996 607.096 776.136ZM618.232 784.572C618.496 784.572 618.724 784.68 618.892 784.908C619.048 785.124 619.132 785.4 619.132 785.748C619.132 786.276 618.976 786.744 618.664 787.152C618.352 787.536 617.932 787.8 617.428 787.932V787.344C617.74 787.236 617.992 787.056 618.184 786.816C618.352 786.564 618.448 786.3 618.448 786.012C618.4 786.036 618.304 786.06 618.184 786.06C617.98 786.06 617.812 785.988 617.668 785.844C617.524 785.7 617.452 785.52 617.452 785.316C617.452 785.088 617.524 784.908 617.668 784.776C617.812 784.632 617.992 784.572 618.232 784.572ZM635.392 776.148L636.244 776.268C636.22 776.628 636.184 776.988 636.16 777.324H639.136V778.116H636.064C636.016 778.476 635.956 778.824 635.908 779.16H638.344V786.048H639.484V786.84H631.624V786.048H632.86V779.16H635.056C635.104 778.812 635.164 778.464 635.212 778.116H632.14V777.324H635.296C635.332 776.928 635.368 776.532 635.392 776.148ZM633.688 786.048H637.516V784.992H633.688V786.048ZM633.688 784.296H637.516V783.288H633.688V784.296ZM633.688 782.592H637.516V781.608H633.688V782.592ZM633.688 780.912H637.516V779.94H633.688V780.912ZM630.148 780.228C629.74 780.852 629.296 781.44 628.804 781.992L628.516 781.08C629.704 779.652 630.568 778.008 631.096 776.16L631.876 776.52C631.636 777.3 631.336 778.044 630.988 778.752V787.2H630.148V780.228ZM642.136 782.16C641.716 782.556 641.26 782.94 640.756 783.3L640.504 782.472C641.776 781.524 642.712 780.444 643.288 779.244L644.032 779.58C643.744 780.168 643.396 780.72 642.976 781.248V787.2H642.136V782.16ZM643.24 776.184L643.96 776.52C643.3 777.816 642.22 778.968 640.72 779.976L640.468 779.136C641.74 778.272 642.664 777.288 643.24 776.184ZM644.812 776.616H650.488V780.444H644.812V776.616ZM649.66 779.748V778.86H645.64V779.748H649.66ZM645.64 778.2H649.66V777.312H645.64V778.2ZM644.284 781.296H651.208V782.052H649.756V783.072H651.484V783.828H649.756V786.132C649.756 786.792 649.408 787.128 648.712 787.128H647.38L647.2 786.312C647.632 786.348 648.028 786.372 648.412 786.372C648.736 786.372 648.904 786.216 648.904 785.928V783.828H643.852V783.072H648.904V782.052H644.284V781.296ZM645.544 784.188C646.228 784.848 646.756 785.436 647.116 785.952L646.456 786.408C646.06 785.856 645.544 785.256 644.92 784.632L645.544 784.188ZM653.848 780.48C653.488 781.008 653.092 781.524 652.66 782.004L652.384 781.08C653.56 779.628 654.412 777.96 654.952 776.088L655.756 776.46C655.468 777.384 655.12 778.248 654.7 779.064V787.224H653.848V780.48ZM655.708 777.78H659.404C659.224 777.3 659.02 776.844 658.78 776.388L659.608 776.16C659.86 776.688 660.052 777.168 660.196 777.612L659.74 777.78H663.52V778.596H655.708V777.78ZM656.812 779.568H662.488V780.348H656.812V779.568ZM656.812 781.26H662.488V782.052H656.812V781.26ZM662.704 783.036V787.2H661.864V786.552H657.424V787.2H656.584V783.036H662.704ZM657.424 785.736H661.864V783.84H657.424V785.736ZM664.852 777.408H666.964V776.148H667.804V777.408H669.784V778.176H667.804V779.184H669.58V782.688H667.804V783.204C668.524 783.684 669.244 784.224 669.976 784.824L669.496 785.544C668.836 784.896 668.272 784.392 667.804 784.008V787.152H666.964V783.792C666.4 784.86 665.716 785.736 664.912 786.408L664.432 785.652C665.44 784.908 666.244 783.924 666.844 782.688H665.152V779.184H666.964V778.176H664.852V777.408ZM668.812 781.968V779.904H667.804V781.968H668.812ZM666.964 781.968V779.904H665.92V781.968H666.964ZM675.088 779.076V784.704H674.272V779.832H671.26V784.728H670.444V779.304C670.36 779.364 670.276 779.424 670.204 779.484L669.7 778.86C670.708 778.188 671.38 777.264 671.74 776.1L672.52 776.244C672.424 776.556 672.328 776.844 672.208 777.108H674.608V777.708C674.284 778.248 673.972 778.704 673.66 779.076H675.088ZM672.688 779.076C673.024 778.716 673.348 778.296 673.672 777.816H671.824C671.512 778.296 671.152 778.716 670.732 779.076H672.688ZM673.708 784.872C674.512 785.568 675.136 786.18 675.568 786.708L674.896 787.176C674.452 786.6 673.84 785.964 673.072 785.268L673.708 784.872ZM672.424 780.684H673.18V782.868C673.144 784.884 672.244 786.36 670.48 787.296L669.808 786.696C671.524 785.904 672.4 784.62 672.424 782.868V780.684Z" fill="#AAAAAA"/>
<path d="M713.199 720.74H702.801V718.936H713.199V720.74ZM713.199 725.521H702.801V723.716H713.199V725.521Z" fill="#C9C9C9"/>
<path d="M786 736L814.467 706.08L842.933 736H786Z" fill="url(#paint19_linear_2008_770)"/>
<path d="M786 736L814.467 706.08L804.667 736H786Z" fill="url(#paint20_linear_2008_770)"/>
<path d="M811.2 736L847.6 692L884 736H811.2Z" fill="url(#paint21_linear_2008_770)"/>
<path d="M811.57 754.39H819.16V755.44H815.845C815.8 755.98 815.74 756.505 815.65 757.015H818.665V764.125H817.6V758.02H813.055V764.155H812.005V757.015H814.555C814.645 756.505 814.705 755.98 814.75 755.44H811.57V754.39ZM816.55 764.215C817.63 765.055 818.545 765.88 819.28 766.72L818.5 767.515C817.84 766.705 816.955 765.835 815.815 764.905L816.55 764.215ZM814.735 758.905H815.8V761.575C815.755 763.165 815.365 764.44 814.615 765.37C813.88 766.24 812.68 766.93 811.015 767.44L810.43 766.525C812.035 766.06 813.145 765.445 813.775 764.68C814.375 763.885 814.69 762.85 814.735 761.575V758.905ZM807.955 767.305H806.26L806.02 766.285C806.56 766.315 807.085 766.345 807.58 766.345C807.94 766.345 808.135 766.12 808.135 765.7V755.44H805.825V754.39H811.045V755.44H809.245V765.97C809.245 766.855 808.81 767.305 807.955 767.305ZM820.975 755.62H821.86V764.605L822.94 764.47V753.865H823.81V764.335C824.17 764.275 824.53 764.2 824.875 764.14V755.62H825.745V759.07C827.11 758.8 828.265 758.455 829.225 758.035C828.655 757.615 828.19 757.18 827.83 756.7C827.53 757 827.23 757.27 826.9 757.54L826.24 756.76C827.29 755.98 828.16 754.96 828.835 753.7L829.795 753.91C829.615 754.24 829.435 754.57 829.255 754.87H833.17V755.725C832.75 756.595 832.09 757.345 831.205 757.99C832.105 758.365 833.185 758.665 834.415 758.875L834.04 759.835C832.48 759.55 831.205 759.145 830.185 758.62C829.09 759.19 827.755 759.67 826.195 760.03L825.745 759.19V765.85H824.875V765.085C823.765 765.295 822.52 765.475 821.14 765.625L820.72 764.74C820.885 764.68 820.975 764.575 820.975 764.44V755.62ZM826.63 760.6H829.63V759.535H830.695V760.6H833.65V761.56H830.695V762.79H833.32V763.75H830.695V764.95H834.145V765.895H830.695V767.515H829.63V765.895H826.255V764.95H829.63V763.75H826.9V762.79H829.63V761.56H826.63V760.6ZM830.2 757.51C830.995 757.015 831.61 756.445 832.03 755.8H828.625L828.445 756.025C828.865 756.595 829.45 757.09 830.2 757.51ZM848.68 754.63V767.5H847.63V766.57H842.71V767.515H841.675V754.63H848.68ZM842.71 765.55H847.63V762.895H842.71V765.55ZM842.71 761.89H847.63V759.235H842.71V761.89ZM842.71 758.23H847.63V755.65H842.71V758.23ZM839.035 759.655V767.485H837.97V759.88C837.46 761.32 836.815 762.61 836.005 763.78L835.585 762.715C836.68 761.26 837.46 759.595 837.94 757.72H835.855V756.685H837.97V753.76H839.035V756.685H840.97V757.72H839.035V758.515C839.725 759.235 840.415 760.045 841.105 760.93L840.52 761.8C839.95 760.93 839.455 760.21 839.035 759.655ZM861.835 754.375V762.625H860.74V755.425H854.08V762.64H853V754.375H861.835ZM856.78 756.43H857.845V759.25C857.785 761.485 857.245 763.27 856.24 764.605C855.265 765.85 853.66 766.825 851.425 767.53L850.84 766.615C853.06 765.925 854.605 765.01 855.475 763.87C856.285 762.685 856.72 761.14 856.78 759.25V756.43ZM862.12 767.215H859.18C858.22 767.215 857.755 766.66 857.755 765.565V761.545H858.82V765.37C858.82 765.91 859.03 766.195 859.48 766.195H861.835C862.09 766.195 862.3 766.12 862.465 765.985C862.675 765.79 862.825 765.1 862.885 763.93L863.92 764.26C863.785 765.67 863.575 766.54 863.29 766.84C863.02 767.08 862.63 767.2 862.12 767.215Z" fill="#868686"/>
<path d="M773.032 777.624V787.188H772.156V786.444H765.844V787.188H764.968V777.624H767.536C767.8 777.144 768.004 776.664 768.124 776.16L769 776.28C768.868 776.76 768.676 777.216 768.436 777.624H773.032ZM765.844 785.616H772.156V783.66H765.844V785.616ZM765.844 782.868H772.156V781.032H765.844V782.868ZM765.844 780.24H772.156V778.452H765.844V780.24ZM785.416 781.68H782.86V782.7H785.692V783.468H782.86V784.584H786.352V785.376H782.86V787.224H781.972V785.376H778.96V784.584H781.972V783.468H779.548V782.7H781.972V781.68H779.692V780.912H781.972V779.844H779.152V779.088H781.972V778.008H779.764V777.24H781.972V776.196H782.86V777.24H785.416V779.088H786.484V779.844H785.416V781.68ZM782.86 778.008V779.088H784.6V778.008H782.86ZM782.86 779.844V780.912H784.6V779.844H782.86ZM777.136 782.124C776.728 782.556 776.272 782.952 775.792 783.324L775.54 782.496C776.692 781.56 777.532 780.504 778.06 779.316L778.816 779.652C778.576 780.156 778.3 780.648 777.976 781.104V787.2H777.136V782.124ZM777.952 776.16L778.708 776.508C778.108 777.816 777.124 778.968 775.768 779.976L775.516 779.136C776.632 778.272 777.448 777.276 777.952 776.16ZM790.804 780.468H795.232V784.668H790.804V780.468ZM794.392 783.852V781.284H791.644V783.852H794.392ZM792.22 776.16L793.12 776.28C792.976 776.88 792.772 777.432 792.508 777.948H797.8V785.952C797.8 786.732 797.428 787.128 796.708 787.128H794.908L794.668 786.252L796.42 786.288C796.756 786.288 796.936 786.108 796.936 785.76V778.776H789.16V787.176H788.296V777.948H791.596C791.884 777.372 792.088 776.784 792.22 776.16ZM803.992 776.196H804.88V779.904H809.332V780.744H804.88V785.88H810.352V786.72H799.672V785.88H803.992V776.196ZM813.232 784.572C813.496 784.572 813.724 784.68 813.892 784.908C814.048 785.124 814.132 785.4 814.132 785.748C814.132 786.276 813.976 786.744 813.664 787.152C813.352 787.536 812.932 787.8 812.428 787.932V787.344C812.74 787.236 812.992 787.056 813.184 786.816C813.352 786.564 813.448 786.3 813.448 786.012C813.4 786.036 813.304 786.06 813.184 786.06C812.98 786.06 812.812 785.988 812.668 785.844C812.524 785.7 812.452 785.52 812.452 785.316C812.452 785.088 812.524 784.908 812.668 784.776C812.812 784.632 812.992 784.572 813.232 784.572ZM831.928 776.16C832.504 776.592 832.996 777.036 833.404 777.48L832.852 778.032H834.316V778.86H830.62C830.704 780.348 830.86 781.524 831.076 782.388C831.148 782.688 831.232 782.964 831.316 783.228C831.916 782.268 832.396 781.14 832.768 779.856L833.548 780.192C833.068 781.776 832.444 783.12 831.676 784.2C831.844 784.584 832.024 784.92 832.216 785.196C832.612 785.772 832.936 786.06 833.176 786.06C833.392 786.048 833.596 785.424 833.776 784.188L834.556 784.62C834.268 786.216 833.86 787.02 833.32 787.02C832.816 787.02 832.276 786.66 831.7 785.94C831.484 785.652 831.28 785.316 831.1 784.944C830.26 785.928 829.276 786.66 828.148 787.164L827.668 786.444C828.868 785.904 829.888 785.112 830.716 784.068C830.548 783.624 830.392 783.144 830.26 782.628C829.996 781.62 829.828 780.36 829.732 778.86H825.616V780.852H828.556C828.532 782.88 828.436 784.188 828.28 784.776C828.124 785.292 827.752 785.556 827.152 785.58C826.864 785.58 826.516 785.556 826.132 785.532L825.868 784.752C826.336 784.776 826.732 784.788 827.056 784.788C827.32 784.776 827.488 784.596 827.56 784.26C827.632 783.852 827.668 782.988 827.692 781.668H825.616V782.028C825.568 784.176 825.088 785.904 824.2 787.2L823.54 786.612C824.308 785.508 824.704 783.984 824.74 782.028V778.032H829.696C829.672 777.432 829.66 776.82 829.66 776.172H830.548C830.548 776.844 830.56 777.456 830.584 778.032H832.828C832.468 777.6 831.988 777.156 831.376 776.688L831.928 776.16ZM845.368 787.008H844.624C844.036 787.008 843.748 786.684 843.748 786.06V779.82H843.088C843.016 783.084 842.284 785.496 840.904 787.044L840.292 786.504C841.552 785.088 842.212 782.856 842.284 779.82H841.12V779.016H842.296V776.208H843.1V779.016H846.148V779.82H844.552V785.88C844.552 786.108 844.66 786.228 844.876 786.228H845.224C845.368 786.228 845.476 786.132 845.536 785.952C845.62 785.724 845.68 785.052 845.704 783.948L846.448 784.188C846.388 785.532 846.268 786.336 846.1 786.624C845.932 786.876 845.692 787.008 845.368 787.008ZM835.696 777.42H838.084C837.916 777.012 837.712 776.652 837.496 776.328L838.42 776.184C838.6 776.544 838.78 776.964 838.948 777.42H841.156V778.212H835.696V777.42ZM836.212 779.196H840.532V782.196H838.816V786.132C838.816 786.768 838.504 787.092 837.892 787.092H836.98L836.812 786.312C837.1 786.348 837.364 786.372 837.616 786.372C837.868 786.372 838 786.216 838 785.928V782.196H836.212V779.196ZM839.728 781.452V779.94H837.004V781.452H839.728ZM836.488 782.856L837.196 783.048C836.932 784.128 836.596 785.076 836.188 785.892L835.48 785.628C835.864 784.896 836.2 783.972 836.488 782.856ZM840.112 782.832C840.46 783.636 840.724 784.38 840.916 785.052L840.22 785.316C840.004 784.536 839.74 783.768 839.416 783.024L840.112 782.832ZM844.516 776.364C845.092 777.036 845.524 777.624 845.836 778.128L845.188 778.56C844.876 778.02 844.432 777.42 843.868 776.76L844.516 776.364ZM847.864 776.676H858.148V777.48H853.432V778.524H857.152V783.276H853.288C853.144 784.068 852.916 784.704 852.58 785.184C854.26 785.892 856.252 786.288 858.556 786.36L858.34 787.188C855.928 787.092 853.828 786.624 852.04 785.808C851.2 786.528 849.82 786.984 847.912 787.2L847.54 786.408C849.208 786.276 850.432 785.94 851.2 785.388C850.504 785.004 849.856 784.56 849.268 784.056L849.928 783.6C850.492 784.068 851.116 784.476 851.788 784.824C852.076 784.416 852.292 783.9 852.412 783.276H848.896V778.524H852.568V777.48H847.864V776.676ZM856.3 782.52V781.248H853.432V781.668L853.396 782.52H856.3ZM852.532 782.52C852.556 782.244 852.568 781.956 852.568 781.668V781.248H849.748V782.52H852.532ZM849.748 780.528H852.568V779.268H849.748V780.528ZM853.432 779.268V780.528H856.3V779.268H853.432ZM861.556 776.064L862.408 776.136C862.264 776.976 862.12 777.768 861.976 778.488H864.052V778.98C863.944 780.876 863.548 782.532 862.876 783.936C863.572 784.476 864.136 784.968 864.58 785.4L863.992 786.084C863.584 785.652 863.068 785.196 862.468 784.692C861.868 785.688 861.1 786.54 860.176 787.248L859.588 786.528C860.5 785.868 861.232 785.076 861.796 784.14C861.244 783.696 860.62 783.228 859.948 782.736C860.32 781.68 860.644 780.54 860.932 779.316H859.66V778.488H861.112C861.28 777.696 861.424 776.892 861.556 776.064ZM862.18 783.408C862.756 782.22 863.092 780.852 863.2 779.316H861.796C861.508 780.588 861.208 781.644 860.896 782.484C861.352 782.808 861.784 783.12 862.18 783.408ZM864.46 781.236H867.172V779.724C867.82 779.16 868.432 778.476 869.02 777.66H864.808V776.82H870.004V777.66C869.428 778.488 868.768 779.268 868.048 779.988V781.236H870.496V782.076H868.048V785.916C868.048 786.684 867.724 787.068 867.1 787.068H865.372L865.144 786.252C865.636 786.252 866.176 786.264 866.752 786.264C867.028 786.264 867.172 786.06 867.172 785.652V782.076H864.46V781.236ZM875.848 778.272V786.456H875.008V785.772H872.824V786.804H871.984V778.272H873.1C873.34 777.6 873.508 776.904 873.616 776.184L874.48 776.304C874.336 777.012 874.156 777.672 873.916 778.272H875.848ZM872.824 784.968H875.008V782.34H872.824V784.968ZM872.824 781.56H875.008V779.088H872.824V781.56ZM877.936 781.056C878.8 782.052 879.448 782.928 879.904 783.672L879.22 784.152C878.728 783.36 878.068 782.472 877.24 781.488L877.936 781.056ZM882.052 778.284C882.052 782.268 881.992 784.74 881.872 785.676C881.752 786.588 881.2 787.056 880.192 787.056C879.952 787.056 879.544 787.032 878.968 787.008L878.764 786.216C879.268 786.24 879.7 786.252 880.072 786.252C880.636 786.252 880.96 785.94 881.056 785.328C881.128 784.656 881.176 782.58 881.2 779.124H877.9C877.564 779.88 877.168 780.564 876.7 781.176L876.184 780.492C877.024 779.316 877.588 777.876 877.9 776.172L878.752 776.28C878.608 776.988 878.44 777.66 878.224 778.284H882.052ZM893.032 777.624V787.188H892.156V786.444H885.844V787.188H884.968V777.624H887.536C887.8 777.144 888.004 776.664 888.124 776.16L889 776.28C888.868 776.76 888.676 777.216 888.436 777.624H893.032ZM885.844 785.616H892.156V783.66H885.844V785.616ZM885.844 782.868H892.156V781.032H885.844V782.868ZM885.844 780.24H892.156V778.452H885.844V780.24ZM906.352 783.732C906.232 785.016 906.052 785.856 905.788 786.24C905.536 786.612 905.02 786.804 904.252 786.804H898.024C897.04 786.804 896.56 786.336 896.56 785.424V780.792H904.156V777.672H896.404V776.832H905.02V781.632H897.436V785.124C897.436 785.676 897.748 785.952 898.372 785.976H904.108C904.672 785.976 905.032 785.796 905.2 785.448C905.344 785.112 905.452 784.452 905.512 783.456L906.352 783.732Z" fill="#AAAAAA"/>
<path d="M314 413H258C246.402 413 237 422.402 237 434V490C237 501.598 246.402 511 258 511H314C325.598 511 335 501.598 335 490V434C335 422.402 325.598 413 314 413Z" fill="url(#paint22_linear_2008_770)"/>
<path d="M249 480L270.495 456.88L291.99 480H249Z" fill="url(#paint23_linear_2008_770)"/>
<path d="M249 480L270.495 456.88L263.095 480H249Z" fill="url(#paint24_linear_2008_770)"/>
<path d="M268.029 480L295.514 446L323 480H268.029Z" fill="url(#paint25_linear_2008_770)"/>
</g>
<defs>
<linearGradient id="paint0_linear_2008_770" x1="0" y1="0" x2="0" y2="819" gradientUnits="userSpaceOnUse">
<stop stop-color="#FCFCFC"/>
<stop offset="1" stop-color="#F8F8F8"/>
</linearGradient>
<linearGradient id="paint1_linear_2008_770" x1="0" y1="386" x2="0" y2="665" gradientUnits="userSpaceOnUse">
<stop stop-color="#F8F8F8"/>
<stop offset="1" stop-color="#FBFBFB"/>
</linearGradient>
<linearGradient id="paint2_linear_2008_770" x1="409" y1="108.64" x2="409" y2="178" gradientUnits="userSpaceOnUse">
<stop stop-color="#EFF1F3"/>
<stop offset="1" stop-color="#DDE0E3"/>
</linearGradient>
<linearGradient id="paint3_linear_2008_770" x1="409" y1="108.64" x2="409" y2="178" gradientUnits="userSpaceOnUse">
<stop stop-color="#9FA5AC"/>
<stop offset="1" stop-color="#CED2D6"/>
</linearGradient>
<linearGradient id="paint4_linear_2008_770" x1="469.686" y1="76" x2="558.359" y2="228.409" gradientUnits="userSpaceOnUse">
<stop stop-color="#FF6A22"/>
<stop offset="1" stop-color="#FF481D"/>
</linearGradient>
<linearGradient id="paint5_linear_2008_770" x1="531" y1="413" x2="629" y2="511" gradientUnits="userSpaceOnUse">
<stop stop-color="#FF6A22"/>
<stop offset="1" stop-color="#FF481D"/>
</linearGradient>
<linearGradient id="paint6_linear_2008_770" x1="678" y1="413" x2="775.995" y2="511.995" gradientUnits="userSpaceOnUse">
<stop stop-color="#F2F2F2"/>
<stop offset="1" stop-color="#E6E6E6"/>
</linearGradient>
<linearGradient id="paint7_linear_2008_770" x1="397" y1="456.88" x2="397" y2="480" gradientUnits="userSpaceOnUse">
<stop stop-color="#EFF1F3"/>
<stop offset="1" stop-color="#DDE0E3"/>
</linearGradient>
<linearGradient id="paint8_linear_2008_770" x1="397" y1="456.88" x2="397" y2="480" gradientUnits="userSpaceOnUse">
<stop stop-color="#9FA5AC"/>
<stop offset="1" stop-color="#CED2D6"/>
</linearGradient>
<linearGradient id="paint9_linear_2008_770" x1="416.029" y1="446" x2="446.449" y2="495.185" gradientUnits="userSpaceOnUse">
<stop stop-color="#FF6A22"/>
<stop offset="1" stop-color="#FF481D"/>
</linearGradient>
<linearGradient id="paint10_linear_2008_770" x1="52" y1="552" x2="106.991" y2="722.237" gradientUnits="userSpaceOnUse">
<stop stop-color="#0B0D10"/>
<stop offset="1" stop-color="#121419"/>
</linearGradient>
<linearGradient id="paint11_linear_2008_770" x1="84" y1="594.2" x2="84" y2="618" gradientUnits="userSpaceOnUse">
<stop stop-color="#EFF1F3"/>
<stop offset="1" stop-color="#DDE0E3"/>
</linearGradient>
<linearGradient id="paint12_linear_2008_770" x1="84" y1="594.2" x2="84" y2="618" gradientUnits="userSpaceOnUse">
<stop stop-color="#9FA5AC"/>
<stop offset="1" stop-color="#CED2D6"/>
</linearGradient>
<linearGradient id="paint13_linear_2008_770" x1="103.8" y1="583" x2="134.964" y2="633.931" gradientUnits="userSpaceOnUse">
<stop stop-color="#FF6A22"/>
<stop offset="1" stop-color="#FF481D"/>
</linearGradient>
<linearGradient id="paint14_linear_2008_770" x1="396" y1="594.2" x2="396" y2="618" gradientUnits="userSpaceOnUse">
<stop stop-color="#EFF1F3"/>
<stop offset="1" stop-color="#DDE0E3"/>
</linearGradient>
<linearGradient id="paint15_linear_2008_770" x1="396" y1="594.2" x2="396" y2="618" gradientUnits="userSpaceOnUse">
<stop stop-color="#9FA5AC"/>
<stop offset="1" stop-color="#CED2D6"/>
</linearGradient>
<linearGradient id="paint16_linear_2008_770" x1="415.8" y1="583" x2="446.964" y2="633.931" gradientUnits="userSpaceOnUse">
<stop stop-color="#FF6A22"/>
<stop offset="1" stop-color="#FF481D"/>
</linearGradient>
<linearGradient id="paint17_linear_2008_770" x1="677" y1="552" x2="731.991" y2="722.237" gradientUnits="userSpaceOnUse">
<stop stop-color="#FF6A22"/>
<stop offset="1" stop-color="#FF481D"/>
</linearGradient>
<linearGradient id="paint18_linear_2008_770" x1="430" y1="703" x2="472.33" y2="738.439" gradientUnits="userSpaceOnUse">
<stop stop-color="#FF6A22"/>
<stop offset="1" stop-color="#FF481D"/>
</linearGradient>
<linearGradient id="paint19_linear_2008_770" x1="786" y1="706.08" x2="786" y2="736" gradientUnits="userSpaceOnUse">
<stop stop-color="#EFF1F3"/>
<stop offset="1" stop-color="#DDE0E3"/>
</linearGradient>
<linearGradient id="paint20_linear_2008_770" x1="786" y1="706.08" x2="786" y2="736" gradientUnits="userSpaceOnUse">
<stop stop-color="#9FA5AC"/>
<stop offset="1" stop-color="#CED2D6"/>
</linearGradient>
<linearGradient id="paint21_linear_2008_770" x1="811.2" y1="692" x2="850.156" y2="756.455" gradientUnits="userSpaceOnUse">
<stop stop-color="#FF6A22"/>
<stop offset="1" stop-color="#FF481D"/>
</linearGradient>
<linearGradient id="paint22_linear_2008_770" x1="237" y1="413" x2="335" y2="511" gradientUnits="userSpaceOnUse">
<stop stop-color="#0B0D10"/>
<stop offset="1" stop-color="#121419"/>
</linearGradient>
<linearGradient id="paint23_linear_2008_770" x1="249" y1="456.88" x2="249" y2="480" gradientUnits="userSpaceOnUse">
<stop stop-color="#EFF1F3"/>
<stop offset="1" stop-color="#DDE0E3"/>
</linearGradient>
<linearGradient id="paint24_linear_2008_770" x1="249" y1="456.88" x2="249" y2="480" gradientUnits="userSpaceOnUse">
<stop stop-color="#9FA5AC"/>
<stop offset="1" stop-color="#CED2D6"/>
</linearGradient>
<linearGradient id="paint25_linear_2008_770" x1="268.029" y1="446" x2="298.449" y2="495.185" gradientUnits="userSpaceOnUse">
<stop stop-color="#FF6A22"/>
<stop offset="1" stop-color="#FF481D"/>
</linearGradient>
<clipPath id="clip0_2008_770">
<rect width="1024" height="819" fill="white"/>
</clipPath>
</defs>
</svg>
