<svg width="449" height="152" viewBox="0 0 449 152" fill="none" xmlns="http://www.w3.org/2000/svg">
<rect width="449" height="152" rx="15" fill="#0B0D10"/>
<g clip-path="url(#clip0_2002_87)">
<rect x="32" y="20" width="112" height="112" rx="21" fill="#0B0D10"/>
<g clip-path="url(#clip1_2002_87)">
<rect x="41" y="96" width="44" height="44" transform="rotate(-45 41 96)" fill="#F2F4F7"/>
<rect x="57" y="96" width="55" height="55" transform="rotate(-45 57 96)" fill="#FF5A1F"/>
</g>
</g>
<path d="M170.25 93V58.0909H185.318C187.909 58.0909 190.176 58.6023 192.119 59.625C194.063 60.6477 195.574 62.0852 196.653 63.9375C197.733 65.7898 198.273 67.9545 198.273 70.4318C198.273 72.9318 197.716 75.0966 196.602 76.9261C195.5 78.7557 193.949 80.1648 191.949 81.1534C189.96 82.142 187.636 82.6364 184.977 82.6364H175.977V75.2727H183.068C184.182 75.2727 185.131 75.0795 185.915 74.6932C186.71 74.2955 187.318 73.733 187.739 73.0057C188.17 72.2784 188.386 71.4205 188.386 70.4318C188.386 69.4318 188.17 68.5795 187.739 67.875C187.318 67.1591 186.71 66.6136 185.915 66.2386C185.131 65.8523 184.182 65.6591 183.068 65.6591H179.727V93H170.25ZM213.869 93.4773C211.074 93.4773 208.665 92.9432 206.642 91.875C204.631 90.7955 203.08 89.25 201.989 87.2386C200.909 85.2159 200.369 82.7955 200.369 79.9773C200.369 77.2727 200.915 74.9091 202.006 72.8864C203.097 70.8636 204.636 69.2898 206.625 68.1648C208.614 67.0398 210.96 66.4773 213.665 66.4773C215.642 66.4773 217.432 66.7841 219.034 67.3977C220.636 68.0114 222.006 68.9034 223.142 70.0739C224.278 71.233 225.153 72.642 225.767 74.3011C226.381 75.9602 226.688 77.8295 226.688 79.9091V82.0909H203.301V76.9091H218.028C218.017 76.1591 217.824 75.5 217.449 74.9318C217.085 74.3523 216.591 73.9034 215.966 73.5852C215.352 73.2557 214.653 73.0909 213.869 73.0909C213.108 73.0909 212.409 73.2557 211.773 73.5852C211.136 73.9034 210.625 74.3466 210.239 74.9148C209.864 75.483 209.665 76.1477 209.642 76.9091V82.5C209.642 83.3409 209.818 84.0909 210.17 84.75C210.523 85.4091 211.028 85.9261 211.688 86.3011C212.347 86.6761 213.142 86.8636 214.074 86.8636C214.722 86.8636 215.313 86.7727 215.847 86.5909C216.392 86.4091 216.858 86.1477 217.244 85.8068C217.631 85.4545 217.915 85.0341 218.097 84.5455H226.688C226.392 86.3636 225.693 87.9432 224.591 89.2841C223.489 90.6136 222.028 91.6477 220.21 92.3864C218.403 93.1136 216.29 93.4773 213.869 93.4773ZM237.822 93.4091C236.152 93.4091 234.675 93.1364 233.391 92.5909C232.118 92.0341 231.118 91.1932 230.391 90.0682C229.663 88.9432 229.3 87.5114 229.3 85.7727C229.3 84.3409 229.544 83.1193 230.033 82.108C230.521 81.0852 231.203 80.25 232.078 79.6023C232.953 78.9545 233.97 78.4602 235.129 78.1193C236.3 77.7784 237.561 77.5568 238.913 77.4545C240.379 77.3409 241.555 77.2045 242.442 77.0455C243.339 76.875 243.987 76.642 244.385 76.3466C244.783 76.0398 244.982 75.6364 244.982 75.1364V75.0682C244.982 74.3864 244.72 73.8636 244.197 73.5C243.675 73.1364 243.004 72.9545 242.186 72.9545C241.288 72.9545 240.555 73.1534 239.987 73.5511C239.43 73.9375 239.095 74.5341 238.982 75.3409H230.322C230.436 73.75 230.942 72.2841 231.839 70.9432C232.749 69.5909 234.072 68.5114 235.811 67.7045C237.55 66.8864 239.72 66.4773 242.322 66.4773C244.197 66.4773 245.879 66.6989 247.368 67.142C248.857 67.5739 250.124 68.1818 251.169 68.9659C252.214 69.7386 253.01 70.6477 253.555 71.6932C254.112 72.7273 254.391 73.8523 254.391 75.0682V93H245.595V89.3182H245.391C244.868 90.2955 244.232 91.0852 243.482 91.6875C242.743 92.2898 241.896 92.7273 240.942 93C239.999 93.2727 238.959 93.4091 237.822 93.4091ZM240.891 87.4773C241.607 87.4773 242.277 87.3295 242.902 87.0341C243.538 86.7386 244.055 86.3125 244.453 85.7557C244.851 85.1989 245.05 84.5227 245.05 83.7273V81.5455C244.8 81.6477 244.533 81.7443 244.249 81.8352C243.976 81.9261 243.68 82.0114 243.362 82.0909C243.055 82.1705 242.726 82.2443 242.374 82.3125C242.033 82.3807 241.675 82.4432 241.3 82.5C240.572 82.6136 239.976 82.8011 239.51 83.0625C239.055 83.3125 238.714 83.625 238.487 84C238.271 84.3636 238.163 84.7727 238.163 85.2273C238.163 85.9545 238.419 86.5114 238.93 86.8977C239.442 87.2841 240.095 87.4773 240.891 87.4773ZM267.341 86.7955L267.409 75.6136H268.636L274.977 66.8182H285.545L274.909 80.5227H272.25L267.341 86.7955ZM258.886 93V58.0909H268.295V93H258.886ZM275.045 93L269.045 82.6364L275.182 75.9545L285.818 93H275.045ZM287.859 58.0909H299.655L307.768 77.8636H308.178L316.291 58.0909H328.087V93H318.814V72.8182H318.541L310.768 92.7273H305.178L297.405 72.6818H297.132V93H287.859V58.0909ZM345.26 93.4773C342.464 93.4773 340.055 92.9432 338.033 91.875C336.021 90.7955 334.47 89.25 333.379 87.2386C332.3 85.2159 331.76 82.7955 331.76 79.9773C331.76 77.2727 332.305 74.9091 333.396 72.8864C334.487 70.8636 336.027 69.2898 338.016 68.1648C340.004 67.0398 342.351 66.4773 345.055 66.4773C347.033 66.4773 348.822 66.7841 350.425 67.3977C352.027 68.0114 353.396 68.9034 354.533 70.0739C355.669 71.233 356.544 72.642 357.158 74.3011C357.771 75.9602 358.078 77.8295 358.078 79.9091V82.0909H334.692V76.9091H349.419C349.408 76.1591 349.214 75.5 348.839 74.9318C348.476 74.3523 347.982 73.9034 347.357 73.5852C346.743 73.2557 346.044 73.0909 345.26 73.0909C344.499 73.0909 343.8 73.2557 343.163 73.5852C342.527 73.9034 342.016 74.3466 341.629 74.9148C341.254 75.483 341.055 76.1477 341.033 76.9091V82.5C341.033 83.3409 341.209 84.0909 341.561 84.75C341.913 85.4091 342.419 85.9261 343.078 86.3011C343.737 86.6761 344.533 86.8636 345.464 86.8636C346.112 86.8636 346.703 86.7727 347.237 86.5909C347.783 86.4091 348.249 86.1477 348.635 85.8068C349.021 85.4545 349.305 85.0341 349.487 84.5455H358.078C357.783 86.3636 357.084 87.9432 355.982 89.2841C354.879 90.6136 353.419 91.6477 351.601 92.3864C349.794 93.1136 347.68 93.4773 345.26 93.4773ZM374.463 93.4773C371.668 93.4773 369.259 92.9432 367.236 91.875C365.224 90.7955 363.673 89.25 362.582 87.2386C361.503 85.2159 360.963 82.7955 360.963 79.9773C360.963 77.2727 361.509 74.9091 362.599 72.8864C363.69 70.8636 365.23 69.2898 367.219 68.1648C369.207 67.0398 371.554 66.4773 374.259 66.4773C376.236 66.4773 378.026 66.7841 379.628 67.3977C381.23 68.0114 382.599 68.9034 383.736 70.0739C384.872 71.233 385.747 72.642 386.361 74.3011C386.974 75.9602 387.281 77.8295 387.281 79.9091V82.0909H363.895V76.9091H378.622C378.611 76.1591 378.418 75.5 378.043 74.9318C377.679 74.3523 377.185 73.9034 376.56 73.5852C375.946 73.2557 375.247 73.0909 374.463 73.0909C373.702 73.0909 373.003 73.2557 372.366 73.5852C371.73 73.9034 371.219 74.3466 370.832 74.9148C370.457 75.483 370.259 76.1477 370.236 76.9091V82.5C370.236 83.3409 370.412 84.0909 370.764 84.75C371.116 85.4091 371.622 85.9261 372.281 86.3011C372.94 86.6761 373.736 86.8636 374.668 86.8636C375.315 86.8636 375.906 86.7727 376.44 86.5909C376.986 86.4091 377.452 86.1477 377.838 85.8068C378.224 85.4545 378.509 85.0341 378.69 84.5455H387.281C386.986 86.3636 386.287 87.9432 385.185 89.2841C384.082 90.6136 382.622 91.6477 380.804 92.3864C378.997 93.1136 376.884 93.4773 374.463 93.4773ZM406.734 66.8182V73.6364H389.484V66.8182H406.734ZM392.825 60.5455H402.234V84.5795C402.234 84.9432 402.297 85.25 402.422 85.5C402.547 85.7386 402.74 85.9205 403.001 86.0455C403.263 86.1591 403.598 86.2159 404.007 86.2159C404.291 86.2159 404.621 86.1818 404.996 86.1136C405.382 86.0455 405.666 85.9886 405.848 85.9432L407.212 92.5568C406.791 92.6818 406.189 92.8352 405.405 93.017C404.632 93.1989 403.712 93.3182 402.643 93.375C400.484 93.4886 398.672 93.267 397.206 92.7102C395.74 92.142 394.638 91.25 393.899 90.0341C393.161 88.8182 392.803 87.2955 392.825 85.4659V60.5455Z" fill="#F2F4F7"/>
<defs>
<clipPath id="clip0_2002_87">
<rect x="32" y="20" width="112" height="112" rx="21" fill="white"/>
</clipPath>
<clipPath id="clip1_2002_87">
<rect width="112" height="50" fill="white" transform="translate(34 46)"/>
</clipPath>
</defs>
</svg>
