<svg width="321" height="220" viewBox="0 0 321 220" fill="none" xmlns="http://www.w3.org/2000/svg">
<rect width="321" height="220" rx="20" fill="#0B0D10"/>
<g clip-path="url(#clip0_2002_122)">
<rect x="60.5" y="28" width="200" height="98" rx="38" fill="#0B0D10"/>
<g clip-path="url(#clip1_2002_122)">
<rect x="61.5999" y="118" width="88.7018" height="88.7018" transform="rotate(-45 61.5999 118)" fill="#F2F4F7"/>
<rect x="94.5788" y="118" width="110.309" height="110.309" transform="rotate(-45 94.5788 118)" fill="#FF5A1F"/>
</g>
</g>
<path d="M42.25 180V145.091H57.3182C59.9091 145.091 62.1761 145.602 64.1193 146.625C66.0625 147.648 67.5739 149.085 68.6534 150.938C69.733 152.79 70.2727 154.955 70.2727 157.432C70.2727 159.932 69.7159 162.097 68.6023 163.926C67.5 165.756 65.9489 167.165 63.9489 168.153C61.9602 169.142 59.6364 169.636 56.9773 169.636H47.9773V162.273H55.0682C56.1818 162.273 57.1307 162.08 57.9148 161.693C58.7102 161.295 59.3182 160.733 59.7386 160.006C60.1705 159.278 60.3864 158.42 60.3864 157.432C60.3864 156.432 60.1705 155.58 59.7386 154.875C59.3182 154.159 58.7102 153.614 57.9148 153.239C57.1307 152.852 56.1818 152.659 55.0682 152.659H51.7273V180H42.25ZM85.8693 180.477C83.0739 180.477 80.6648 179.943 78.642 178.875C76.6307 177.795 75.0795 176.25 73.9886 174.239C72.9091 172.216 72.3693 169.795 72.3693 166.977C72.3693 164.273 72.9148 161.909 74.0057 159.886C75.0966 157.864 76.6364 156.29 78.625 155.165C80.6136 154.04 82.9602 153.477 85.6648 153.477C87.642 153.477 89.4318 153.784 91.0341 154.398C92.6364 155.011 94.0057 155.903 95.142 157.074C96.2784 158.233 97.1534 159.642 97.767 161.301C98.3807 162.96 98.6875 164.83 98.6875 166.909V169.091H75.3011V163.909H90.0284C90.017 163.159 89.8239 162.5 89.4489 161.932C89.0852 161.352 88.5909 160.903 87.9659 160.585C87.3523 160.256 86.6534 160.091 85.8693 160.091C85.108 160.091 84.4091 160.256 83.7727 160.585C83.1364 160.903 82.625 161.347 82.2386 161.915C81.8636 162.483 81.6648 163.148 81.642 163.909V169.5C81.642 170.341 81.8182 171.091 82.1705 171.75C82.5227 172.409 83.0284 172.926 83.6875 173.301C84.3466 173.676 85.142 173.864 86.0739 173.864C86.7216 173.864 87.3125 173.773 87.8466 173.591C88.392 173.409 88.858 173.148 89.2443 172.807C89.6307 172.455 89.9148 172.034 90.0966 171.545H98.6875C98.392 173.364 97.6932 174.943 96.5909 176.284C95.4886 177.614 94.0284 178.648 92.2102 179.386C90.4034 180.114 88.2898 180.477 85.8693 180.477ZM109.822 180.409C108.152 180.409 106.675 180.136 105.391 179.591C104.118 179.034 103.118 178.193 102.391 177.068C101.663 175.943 101.3 174.511 101.3 172.773C101.3 171.341 101.544 170.119 102.033 169.108C102.521 168.085 103.203 167.25 104.078 166.602C104.953 165.955 105.97 165.46 107.129 165.119C108.3 164.778 109.561 164.557 110.913 164.455C112.379 164.341 113.555 164.205 114.442 164.045C115.339 163.875 115.987 163.642 116.385 163.347C116.783 163.04 116.982 162.636 116.982 162.136V162.068C116.982 161.386 116.72 160.864 116.197 160.5C115.675 160.136 115.004 159.955 114.186 159.955C113.288 159.955 112.555 160.153 111.987 160.551C111.43 160.937 111.095 161.534 110.982 162.341H102.322C102.436 160.75 102.942 159.284 103.839 157.943C104.749 156.591 106.072 155.511 107.811 154.705C109.55 153.886 111.72 153.477 114.322 153.477C116.197 153.477 117.879 153.699 119.368 154.142C120.857 154.574 122.124 155.182 123.169 155.966C124.214 156.739 125.01 157.648 125.555 158.693C126.112 159.727 126.391 160.852 126.391 162.068V180H117.595V176.318H117.391C116.868 177.295 116.232 178.085 115.482 178.688C114.743 179.29 113.896 179.727 112.942 180C111.999 180.273 110.959 180.409 109.822 180.409ZM112.891 174.477C113.607 174.477 114.277 174.33 114.902 174.034C115.538 173.739 116.055 173.312 116.453 172.756C116.851 172.199 117.05 171.523 117.05 170.727V168.545C116.8 168.648 116.533 168.744 116.249 168.835C115.976 168.926 115.68 169.011 115.362 169.091C115.055 169.17 114.726 169.244 114.374 169.312C114.033 169.381 113.675 169.443 113.3 169.5C112.572 169.614 111.976 169.801 111.51 170.062C111.055 170.312 110.714 170.625 110.487 171C110.271 171.364 110.163 171.773 110.163 172.227C110.163 172.955 110.419 173.511 110.93 173.898C111.442 174.284 112.095 174.477 112.891 174.477ZM139.341 173.795L139.409 162.614H140.636L146.977 153.818H157.545L146.909 167.523H144.25L139.341 173.795ZM130.886 180V145.091H140.295V180H130.886ZM147.045 180L141.045 169.636L147.182 162.955L157.818 180H147.045ZM159.859 145.091H171.655L179.768 164.864H180.178L188.291 145.091H200.087V180H190.814V159.818H190.541L182.768 179.727H177.178L169.405 159.682H169.132V180H159.859V145.091ZM217.26 180.477C214.464 180.477 212.055 179.943 210.033 178.875C208.021 177.795 206.47 176.25 205.379 174.239C204.3 172.216 203.76 169.795 203.76 166.977C203.76 164.273 204.305 161.909 205.396 159.886C206.487 157.864 208.027 156.29 210.016 155.165C212.004 154.04 214.351 153.477 217.055 153.477C219.033 153.477 220.822 153.784 222.425 154.398C224.027 155.011 225.396 155.903 226.533 157.074C227.669 158.233 228.544 159.642 229.158 161.301C229.771 162.96 230.078 164.83 230.078 166.909V169.091H206.692V163.909H221.419C221.408 163.159 221.214 162.5 220.839 161.932C220.476 161.352 219.982 160.903 219.357 160.585C218.743 160.256 218.044 160.091 217.26 160.091C216.499 160.091 215.8 160.256 215.163 160.585C214.527 160.903 214.016 161.347 213.629 161.915C213.254 162.483 213.055 163.148 213.033 163.909V169.5C213.033 170.341 213.209 171.091 213.561 171.75C213.913 172.409 214.419 172.926 215.078 173.301C215.737 173.676 216.533 173.864 217.464 173.864C218.112 173.864 218.703 173.773 219.237 173.591C219.783 173.409 220.249 173.148 220.635 172.807C221.021 172.455 221.305 172.034 221.487 171.545H230.078C229.783 173.364 229.084 174.943 227.982 176.284C226.879 177.614 225.419 178.648 223.601 179.386C221.794 180.114 219.68 180.477 217.26 180.477ZM246.463 180.477C243.668 180.477 241.259 179.943 239.236 178.875C237.224 177.795 235.673 176.25 234.582 174.239C233.503 172.216 232.963 169.795 232.963 166.977C232.963 164.273 233.509 161.909 234.599 159.886C235.69 157.864 237.23 156.29 239.219 155.165C241.207 154.04 243.554 153.477 246.259 153.477C248.236 153.477 250.026 153.784 251.628 154.398C253.23 155.011 254.599 155.903 255.736 157.074C256.872 158.233 257.747 159.642 258.361 161.301C258.974 162.96 259.281 164.83 259.281 166.909V169.091H235.895V163.909H250.622C250.611 163.159 250.418 162.5 250.043 161.932C249.679 161.352 249.185 160.903 248.56 160.585C247.946 160.256 247.247 160.091 246.463 160.091C245.702 160.091 245.003 160.256 244.366 160.585C243.73 160.903 243.219 161.347 242.832 161.915C242.457 162.483 242.259 163.148 242.236 163.909V169.5C242.236 170.341 242.412 171.091 242.764 171.75C243.116 172.409 243.622 172.926 244.281 173.301C244.94 173.676 245.736 173.864 246.668 173.864C247.315 173.864 247.906 173.773 248.44 173.591C248.986 173.409 249.452 173.148 249.838 172.807C250.224 172.455 250.509 172.034 250.69 171.545H259.281C258.986 173.364 258.287 174.943 257.185 176.284C256.082 177.614 254.622 178.648 252.804 179.386C250.997 180.114 248.884 180.477 246.463 180.477ZM278.734 153.818V160.636H261.484V153.818H278.734ZM264.825 147.545H274.234V171.58C274.234 171.943 274.297 172.25 274.422 172.5C274.547 172.739 274.74 172.92 275.001 173.045C275.263 173.159 275.598 173.216 276.007 173.216C276.291 173.216 276.621 173.182 276.996 173.114C277.382 173.045 277.666 172.989 277.848 172.943L279.212 179.557C278.791 179.682 278.189 179.835 277.405 180.017C276.632 180.199 275.712 180.318 274.643 180.375C272.484 180.489 270.672 180.267 269.206 179.71C267.74 179.142 266.638 178.25 265.899 177.034C265.161 175.818 264.803 174.295 264.825 172.466V147.545Z" fill="#F2F4F7"/>
<defs>
<clipPath id="clip0_2002_122">
<rect x="60.5" y="28" width="200" height="98" rx="38" fill="white"/>
</clipPath>
<clipPath id="clip1_2002_122">
<rect width="200" height="90" fill="white" transform="translate(61 18)"/>
</clipPath>
</defs>
</svg>
