<svg width="291" height="94" viewBox="0 0 291 94" fill="none" xmlns="http://www.w3.org/2000/svg">
<path d="M283 0H8C3.58172 0 0 3.58172 0 8V86C0 90.4183 3.58172 94 8 94H283C287.418 94 291 90.4183 291 86V8C291 3.58172 287.418 0 283 0Z" fill="url(#paint0_linear_2008_1117)"/>
<path d="M32 66L54.3667 42.2L76.7334 66H32Z" fill="url(#paint1_linear_2008_1117)"/>
<path d="M32 66L54.3667 42.2L46.6667 66H32Z" fill="url(#paint2_linear_2008_1117)"/>
<path d="M51.8 66L80.4001 31L109 66H51.8Z" fill="url(#paint3_linear_2008_1117)"/>
<path d="M118.168 31.5254H129.198C131.601 31.5254 133.397 32.0967 134.589 33.2393C135.79 34.3818 136.391 36.0078 136.391 38.1172C136.391 40.2852 135.736 41.9795 134.428 43.2002C133.129 44.4209 131.142 45.0312 128.466 45.0312H124.833V53H118.168V31.5254ZM124.833 40.6807H126.459C127.738 40.6807 128.637 40.4609 129.154 40.0215C129.672 39.5723 129.931 39.001 129.931 38.3076C129.931 37.6338 129.706 37.0625 129.257 36.5938C128.808 36.125 127.963 35.8906 126.723 35.8906H124.833V40.6807ZM154.19 46.7012H142.237C142.345 47.6582 142.603 48.3711 143.013 48.8398C143.59 49.5137 144.342 49.8506 145.269 49.8506C145.855 49.8506 146.412 49.7041 146.939 49.4111C147.262 49.2256 147.608 48.8984 147.979 48.4297L153.853 48.9717C152.955 50.5342 151.871 51.6572 150.601 52.3408C149.332 53.0146 147.511 53.3516 145.138 53.3516C143.077 53.3516 141.456 53.0635 140.274 52.4873C139.093 51.9014 138.111 50.9785 137.33 49.7188C136.558 48.4492 136.173 46.96 136.173 45.251C136.173 42.8193 136.949 40.8516 138.502 39.3477C140.064 37.8438 142.218 37.0918 144.962 37.0918C147.188 37.0918 148.946 37.4287 150.235 38.1025C151.524 38.7764 152.506 39.7529 153.179 41.0322C153.853 42.3115 154.19 43.9766 154.19 46.0273V46.7012ZM148.126 43.8447C148.009 42.6924 147.696 41.8672 147.188 41.3691C146.69 40.8711 146.031 40.6221 145.211 40.6221C144.263 40.6221 143.507 40.998 142.94 41.75C142.579 42.2188 142.349 42.917 142.252 43.8447H148.126ZM160.564 42.4824L154.866 41.8818C155.081 40.8857 155.388 40.1045 155.789 39.5381C156.199 38.9619 156.785 38.4639 157.546 38.0439C158.093 37.7412 158.845 37.5068 159.802 37.3408C160.759 37.1748 161.795 37.0918 162.908 37.0918C164.695 37.0918 166.13 37.1943 167.214 37.3994C168.298 37.5947 169.202 38.0098 169.924 38.6445C170.432 39.084 170.833 39.709 171.126 40.5195C171.419 41.3203 171.565 42.0869 171.565 42.8193V49.6895C171.565 50.4219 171.609 50.998 171.697 51.418C171.795 51.8281 172 52.3555 172.312 53H166.716C166.492 52.5996 166.345 52.2969 166.277 52.0918C166.209 51.877 166.14 51.5449 166.072 51.0957C165.291 51.8477 164.514 52.3848 163.743 52.707C162.688 53.1367 161.463 53.3516 160.066 53.3516C158.211 53.3516 156.799 52.9219 155.833 52.0625C154.876 51.2031 154.397 50.1436 154.397 48.8838C154.397 47.7021 154.744 46.7305 155.437 45.9688C156.13 45.207 157.41 44.6406 159.275 44.2695C161.511 43.8203 162.962 43.5078 163.626 43.332C164.29 43.1465 164.993 42.9072 165.735 42.6143C165.735 41.8818 165.584 41.3691 165.281 41.0762C164.978 40.7832 164.446 40.6367 163.684 40.6367C162.708 40.6367 161.975 40.793 161.487 41.1055C161.106 41.3496 160.798 41.8086 160.564 42.4824ZM165.735 45.6172C164.915 45.9102 164.06 46.1689 163.171 46.3936C161.961 46.7158 161.194 47.0332 160.872 47.3457C160.54 47.668 160.374 48.0342 160.374 48.4443C160.374 48.9131 160.535 49.2988 160.857 49.6016C161.189 49.8945 161.672 50.041 162.307 50.041C162.971 50.041 163.587 49.8799 164.153 49.5576C164.729 49.2354 165.134 48.8447 165.369 48.3857C165.613 47.917 165.735 47.3115 165.735 46.5693V45.6172ZM173.339 31.5254H179.433V42.5996L183.886 37.4434H191.225L185.644 42.8926L191.547 53H184.824L181.674 46.7598L179.433 48.957V53H173.339V31.5254ZM191.871 31.5254H200.602L203.971 44.5918L207.325 31.5254H216.027V53H210.607V36.623L206.403 53H201.495L197.306 36.623V53H191.871V31.5254ZM235.35 46.7012H223.396C223.504 47.6582 223.763 48.3711 224.173 48.8398C224.749 49.5137 225.501 49.8506 226.429 49.8506C227.015 49.8506 227.571 49.7041 228.099 49.4111C228.421 49.2256 228.768 48.8984 229.139 48.4297L235.013 48.9717C234.114 50.5342 233.03 51.6572 231.761 52.3408C230.491 53.0146 228.67 53.3516 226.297 53.3516C224.236 53.3516 222.615 53.0635 221.434 52.4873C220.252 51.9014 219.271 50.9785 218.489 49.7188C217.718 48.4492 217.332 46.96 217.332 45.251C217.332 42.8193 218.108 40.8516 219.661 39.3477C221.224 37.8438 223.377 37.0918 226.121 37.0918C228.348 37.0918 230.105 37.4287 231.395 38.1025C232.684 38.7764 233.665 39.7529 234.339 41.0322C235.013 42.3115 235.35 43.9766 235.35 46.0273V46.7012ZM229.285 43.8447C229.168 42.6924 228.855 41.8672 228.348 41.3691C227.85 40.8711 227.19 40.6221 226.37 40.6221C225.423 40.6221 224.666 40.998 224.1 41.75C223.738 42.2188 223.509 42.917 223.411 43.8447H229.285ZM253.559 46.7012H241.606C241.714 47.6582 241.972 48.3711 242.383 48.8398C242.959 49.5137 243.711 49.8506 244.638 49.8506C245.224 49.8506 245.781 49.7041 246.308 49.4111C246.631 49.2256 246.977 48.8984 247.348 48.4297L253.222 48.9717C252.324 50.5342 251.24 51.6572 249.971 52.3408C248.701 53.0146 246.88 53.3516 244.507 53.3516C242.446 53.3516 240.825 53.0635 239.643 52.4873C238.462 51.9014 237.48 50.9785 236.699 49.7188C235.928 48.4492 235.542 46.96 235.542 45.251C235.542 42.8193 236.318 40.8516 237.871 39.3477C239.433 37.8438 241.587 37.0918 244.331 37.0918C246.557 37.0918 248.315 37.4287 249.604 38.1025C250.893 38.7764 251.875 39.7529 252.549 41.0322C253.222 42.3115 253.559 43.9766 253.559 46.0273V46.7012ZM247.495 43.8447C247.378 42.6924 247.065 41.8672 246.557 41.3691C246.059 40.8711 245.4 40.6221 244.58 40.6221C243.633 40.6221 242.876 40.998 242.309 41.75C241.948 42.2188 241.719 42.917 241.621 43.8447H247.495ZM261.691 31.5254V37.4434H264.972V41.7939H261.691V47.3164C261.691 47.9805 261.754 48.4199 261.881 48.6348C262.077 48.9668 262.419 49.1328 262.907 49.1328C263.346 49.1328 263.962 49.0059 264.753 48.752L265.192 52.8682C263.717 53.1904 262.34 53.3516 261.061 53.3516C259.577 53.3516 258.483 53.1611 257.78 52.7803C257.077 52.3994 256.554 51.8232 256.212 51.0518C255.88 50.2705 255.714 49.0107 255.714 47.2725V41.7939H253.517V37.4434H255.714V34.5869L261.691 31.5254Z" fill="#F7F7F7"/>
<path d="M124 64H143ZM233 64H252Z" fill="black"/>
<path d="M124 64H143M233 64H252" stroke="#FF5722"/>
<path d="M152.414 67V59.8418H157.321V61.0527H153.86V62.7471H156.848V63.958H153.86V67H152.414ZM163.374 67V59.8418H164.819V67H163.374ZM172.712 67V61.0527H170.588V59.8418H176.277V61.0527H174.158V67H172.712ZM182.129 67V59.8418H183.535L186.465 64.6221V59.8418H187.808V67H186.357L183.472 62.332V67H182.129ZM194.241 67V59.8418H199.548V61.0527H195.686V62.6396H199.28V63.8457H195.686V65.7939H199.685V67H194.241ZM205.445 64.6709L206.851 64.5342C206.935 65.0062 207.106 65.3529 207.363 65.5742C207.624 65.7956 207.974 65.9062 208.413 65.9062C208.879 65.9062 209.229 65.8086 209.463 65.6133C209.701 65.4147 209.82 65.1836 209.82 64.9199C209.82 64.7507 209.769 64.6074 209.668 64.4902C209.571 64.3698 209.398 64.2656 209.151 64.1777C208.981 64.1191 208.596 64.015 207.993 63.8652C207.219 63.6732 206.675 63.4372 206.362 63.1572C205.923 62.7633 205.703 62.2832 205.703 61.7168C205.703 61.3522 205.806 61.012 206.011 60.6963C206.219 60.3773 206.517 60.1348 206.904 59.9688C207.295 59.8027 207.765 59.7197 208.316 59.7197C209.214 59.7197 209.89 59.9167 210.342 60.3105C210.798 60.7044 211.037 61.2301 211.06 61.8877L209.614 61.9512C209.553 61.5833 209.419 61.3197 209.214 61.1602C209.012 60.9974 208.708 60.916 208.301 60.916C207.881 60.916 207.552 61.0023 207.315 61.1748C207.162 61.2855 207.085 61.4336 207.085 61.6191C207.085 61.7884 207.157 61.9333 207.3 62.0537C207.482 62.2067 207.925 62.3662 208.628 62.5322C209.331 62.6982 209.85 62.8708 210.186 63.0498C210.524 63.2256 210.788 63.4681 210.977 63.7773C211.169 64.0833 211.265 64.4626 211.265 64.915C211.265 65.3252 211.151 65.7093 210.923 66.0674C210.695 66.4255 210.373 66.6924 209.956 66.8682C209.54 67.0407 209.02 67.127 208.399 67.127C207.494 67.127 206.799 66.9186 206.314 66.502C205.829 66.082 205.539 65.4717 205.445 64.6709ZM217.014 64.6709L218.421 64.5342C218.505 65.0062 218.676 65.3529 218.933 65.5742C219.194 65.7956 219.544 65.9062 219.983 65.9062C220.449 65.9062 220.799 65.8086 221.033 65.6133C221.271 65.4147 221.389 65.1836 221.389 64.9199C221.389 64.7507 221.339 64.6074 221.238 64.4902C221.14 64.3698 220.968 64.2656 220.721 64.1777C220.551 64.1191 220.165 64.015 219.563 63.8652C218.789 63.6732 218.245 63.4372 217.932 63.1572C217.493 62.7633 217.273 62.2832 217.273 61.7168C217.273 61.3522 217.376 61.012 217.581 60.6963C217.789 60.3773 218.087 60.1348 218.474 59.9688C218.865 59.8027 219.335 59.7197 219.886 59.7197C220.784 59.7197 221.459 59.9167 221.912 60.3105C222.368 60.7044 222.607 61.2301 222.63 61.8877L221.184 61.9512C221.123 61.5833 220.989 61.3197 220.784 61.1602C220.582 60.9974 220.278 60.916 219.871 60.916C219.451 60.916 219.122 61.0023 218.885 61.1748C218.732 61.2855 218.655 61.4336 218.655 61.6191C218.655 61.7884 218.727 61.9333 218.87 62.0537C219.052 62.2067 219.495 62.3662 220.198 62.5322C220.901 62.6982 221.42 62.8708 221.756 63.0498C222.094 63.2256 222.358 63.4681 222.547 63.7773C222.739 64.0833 222.835 64.4626 222.835 64.915C222.835 65.3252 222.721 65.7093 222.493 66.0674C222.265 66.4255 221.943 66.6924 221.526 66.8682C221.11 67.0407 220.59 67.127 219.969 67.127C219.064 67.127 218.369 66.9186 217.884 66.502C217.399 66.082 217.109 65.4717 217.014 64.6709Z" fill="#FF5722"/>
<defs>
<linearGradient id="paint0_linear_2008_1117" x1="0" y1="0" x2="54.9906" y2="170.237" gradientUnits="userSpaceOnUse">
<stop stop-color="#0B0D10"/>
<stop offset="1" stop-color="#121419"/>
</linearGradient>
<linearGradient id="paint1_linear_2008_1117" x1="32" y1="42.2" x2="32" y2="66" gradientUnits="userSpaceOnUse">
<stop stop-color="#EFF1F3"/>
<stop offset="1" stop-color="#DDE0E3"/>
</linearGradient>
<linearGradient id="paint2_linear_2008_1117" x1="32" y1="42.2" x2="32" y2="66" gradientUnits="userSpaceOnUse">
<stop stop-color="#9FA5AC"/>
<stop offset="1" stop-color="#CED2D6"/>
</linearGradient>
<linearGradient id="paint3_linear_2008_1117" x1="51.8" y1="31" x2="82.9641" y2="81.9311" gradientUnits="userSpaceOnUse">
<stop stop-color="#FF6A22"/>
<stop offset="1" stop-color="#FF481D"/>
</linearGradient>
</defs>
</svg>
