<svg width="401" height="272" viewBox="0 0 401 272" fill="none" xmlns="http://www.w3.org/2000/svg">
<path d="M91 102L159.552 32.64L228.105 102H91Z" fill="url(#paint0_linear_2008_1116)"/>
<path d="M91 102L159.552 32.64L135.952 102H91Z" fill="url(#paint1_linear_2008_1116)"/>
<path d="M151.686 102L239.343 0L327 102H151.686Z" fill="url(#paint2_linear_2008_1116)"/>
<path d="M6.24532 123.734H35.6594C42.0656 123.734 46.8573 125.258 50.0344 128.305C53.2375 131.352 54.8391 135.688 54.8391 141.312C54.8391 147.094 53.0943 151.612 49.6047 154.867C46.1411 158.122 40.8417 159.75 33.7063 159.75H24.0188V181H6.24532V123.734ZM24.0188 148.148H28.3547C31.7661 148.148 34.162 147.562 35.5422 146.391C36.9224 145.193 37.6125 143.669 37.6125 141.82C37.6125 140.023 37.0135 138.5 35.8156 137.25C34.6177 136 32.3651 135.375 29.0578 135.375H24.0188V148.148ZM102.305 164.203H70.4297C70.7161 166.755 71.4063 168.656 72.5 169.906C74.0365 171.703 76.0417 172.602 78.5156 172.602C80.0781 172.602 81.5625 172.211 82.9688 171.43C83.8281 170.935 84.7526 170.062 85.7422 168.812L101.406 170.258C99.0104 174.424 96.1198 177.419 92.7344 179.242C89.349 181.039 84.4922 181.938 78.1641 181.938C72.6693 181.938 68.3464 181.169 65.1953 179.633C62.0443 178.07 59.4271 175.609 57.3438 172.25C55.2865 168.865 54.2578 164.893 54.2578 160.336C54.2578 153.852 56.3281 148.604 60.4688 144.594C64.6354 140.583 70.3776 138.578 77.6953 138.578C83.6328 138.578 88.3203 139.477 91.7578 141.273C95.1953 143.07 97.8125 145.674 99.6094 149.086C101.406 152.497 102.305 156.938 102.305 162.406V164.203ZM86.1328 156.586C85.8203 153.513 84.987 151.312 83.6328 149.984C82.3047 148.656 80.5469 147.992 78.3594 147.992C75.8333 147.992 73.8151 148.995 72.3047 151C71.3411 152.25 70.7292 154.112 70.4688 156.586H86.1328ZM119.302 152.953L104.106 151.352C104.679 148.695 105.499 146.612 106.567 145.102C107.661 143.565 109.223 142.237 111.255 141.117C112.713 140.31 114.718 139.685 117.27 139.242C119.822 138.799 122.583 138.578 125.552 138.578C130.317 138.578 134.145 138.852 137.036 139.398C139.927 139.919 142.335 141.026 144.263 142.719C145.617 143.891 146.684 145.557 147.466 147.719C148.247 149.854 148.638 151.898 148.638 153.852V172.172C148.638 174.125 148.755 175.661 148.989 176.781C149.249 177.875 149.796 179.281 150.63 181H135.708C135.109 179.932 134.718 179.125 134.536 178.578C134.354 178.005 134.171 177.12 133.989 175.922C131.906 177.927 129.835 179.359 127.778 180.219C124.966 181.365 121.697 181.938 117.973 181.938C113.026 181.938 109.263 180.792 106.684 178.5C104.132 176.208 102.856 173.383 102.856 170.023C102.856 166.872 103.781 164.281 105.63 162.25C107.479 160.219 110.89 158.708 115.864 157.719C121.828 156.521 125.695 155.688 127.466 155.219C129.236 154.724 131.111 154.086 133.091 153.305C133.091 151.352 132.687 149.984 131.88 149.203C131.072 148.422 129.653 148.031 127.622 148.031C125.018 148.031 123.065 148.448 121.763 149.281C120.747 149.932 119.927 151.156 119.302 152.953ZM133.091 161.312C130.903 162.094 128.624 162.784 126.255 163.383C123.026 164.242 120.981 165.089 120.122 165.922C119.236 166.781 118.794 167.758 118.794 168.852C118.794 170.102 119.223 171.13 120.083 171.938C120.968 172.719 122.257 173.109 123.95 173.109C125.721 173.109 127.361 172.68 128.872 171.82C130.408 170.961 131.489 169.919 132.114 168.695C132.765 167.445 133.091 165.831 133.091 163.852V161.312ZM153.369 123.734H169.619V153.266L181.494 139.516H201.064L186.181 154.047L201.923 181H183.994L175.595 164.359L169.619 170.219V181H153.369V123.734ZM202.788 123.734H226.069L235.053 158.578L243.998 123.734H267.202V181H252.748V137.328L241.538 181H228.452L217.28 137.328V181H202.788V123.734ZM318.73 164.203H286.855C287.141 166.755 287.831 168.656 288.925 169.906C290.461 171.703 292.467 172.602 294.941 172.602C296.503 172.602 297.987 172.211 299.394 171.43C300.253 170.935 301.178 170.062 302.167 168.812L317.831 170.258C315.435 174.424 312.545 177.419 309.159 179.242C305.774 181.039 300.917 181.938 294.589 181.938C289.094 181.938 284.771 181.169 281.62 179.633C278.469 178.07 275.852 175.609 273.769 172.25C271.711 168.865 270.683 164.893 270.683 160.336C270.683 153.852 272.753 148.604 276.894 144.594C281.06 140.583 286.803 138.578 294.12 138.578C300.058 138.578 304.745 139.477 308.183 141.273C311.62 143.07 314.237 145.674 316.034 149.086C317.831 152.497 318.73 156.938 318.73 162.406V164.203ZM302.558 156.586C302.245 153.513 301.412 151.312 300.058 149.984C298.73 148.656 296.972 147.992 294.784 147.992C292.258 147.992 290.24 148.995 288.73 151C287.766 152.25 287.154 154.112 286.894 156.586H302.558ZM367.289 164.203H335.414C335.701 166.755 336.391 168.656 337.484 169.906C339.021 171.703 341.026 172.602 343.5 172.602C345.062 172.602 346.547 172.211 347.953 171.43C348.812 170.935 349.737 170.062 350.727 168.812L366.391 170.258C363.995 174.424 361.104 177.419 357.719 179.242C354.333 181.039 349.477 181.938 343.148 181.938C337.654 181.938 333.331 181.169 330.18 179.633C327.029 178.07 324.411 175.609 322.328 172.25C320.271 168.865 319.242 164.893 319.242 160.336C319.242 153.852 321.312 148.604 325.453 144.594C329.62 140.583 335.362 138.578 342.68 138.578C348.617 138.578 353.305 139.477 356.742 141.273C360.18 143.07 362.797 145.674 364.594 149.086C366.391 152.497 367.289 156.938 367.289 162.406V164.203ZM351.117 156.586C350.805 153.513 349.971 151.312 348.617 149.984C347.289 148.656 345.531 147.992 343.344 147.992C340.818 147.992 338.799 148.995 337.289 151C336.326 152.25 335.714 154.112 335.453 156.586H351.117ZM388.973 123.734V139.516H397.723V151.117H388.973V165.844C388.973 167.615 389.143 168.786 389.481 169.359C390.002 170.245 390.914 170.688 392.216 170.688C393.388 170.688 395.028 170.349 397.138 169.672L398.309 180.648C394.377 181.508 390.705 181.938 387.294 181.938C383.335 181.938 380.419 181.43 378.544 180.414C376.669 179.398 375.276 177.862 374.364 175.805C373.479 173.721 373.036 170.362 373.036 165.727V151.117H367.177V139.516H373.036V131.898L388.973 123.734Z" fill="#0B0D10"/>
<rect x="25" y="210" width="56" height="3" fill="#FF6522"/>
<rect x="320" y="210" width="60" height="3" fill="#FF6522"/>
<path d="M107.082 222V201.241H121.086V203.691H109.829V210.12H119.571V212.569H109.829V222H107.082ZM137.316 222V201.241H140.063V222H137.316ZM162.382 222V203.691H155.543V201.241H171.997V203.691H165.129V222H162.382ZM186.98 222V201.241H189.798L200.702 217.54V201.241H203.335V222H200.518L189.614 205.688V222H186.98ZM220.202 222V201.241H235.212V203.691H222.95V210.049H234.433V212.484H222.95V219.55H235.694V222H220.202ZM250.734 215.331L253.325 215.104C253.448 216.142 253.731 216.997 254.175 217.667C254.628 218.328 255.327 218.866 256.271 219.281C257.215 219.687 258.277 219.89 259.457 219.89C260.505 219.89 261.43 219.734 262.232 219.423C263.034 219.111 263.629 218.687 264.016 218.148C264.413 217.601 264.611 217.006 264.611 216.364C264.611 215.713 264.422 215.146 264.045 214.665C263.667 214.174 263.044 213.764 262.175 213.433C261.618 213.216 260.387 212.881 258.48 212.428C256.573 211.965 255.237 211.531 254.472 211.125C253.481 210.606 252.74 209.964 252.249 209.199C251.768 208.425 251.527 207.561 251.527 206.608C251.527 205.56 251.824 204.583 252.419 203.677C253.014 202.761 253.882 202.067 255.025 201.595C256.167 201.123 257.436 200.887 258.834 200.887C260.372 200.887 261.727 201.137 262.898 201.638C264.078 202.129 264.984 202.855 265.616 203.818C266.249 204.781 266.589 205.872 266.636 207.089L264.002 207.288C263.86 205.975 263.379 204.984 262.558 204.314C261.746 203.644 260.542 203.309 258.947 203.309C257.285 203.309 256.072 203.615 255.308 204.229C254.553 204.833 254.175 205.565 254.175 206.424C254.175 207.17 254.444 207.783 254.982 208.265C255.511 208.746 256.889 209.242 259.117 209.751C261.354 210.252 262.888 210.691 263.719 211.068C264.927 211.625 265.819 212.333 266.395 213.192C266.971 214.042 267.259 215.024 267.259 216.138C267.259 217.242 266.943 218.285 266.31 219.267C265.678 220.239 264.767 220.999 263.577 221.547C262.397 222.085 261.066 222.354 259.584 222.354C257.706 222.354 256.129 222.08 254.855 221.533C253.59 220.985 252.594 220.164 251.867 219.069C251.149 217.964 250.772 216.718 250.734 215.331ZM282.257 215.331L284.848 215.104C284.971 216.142 285.254 216.997 285.698 217.667C286.151 218.328 286.849 218.866 287.793 219.281C288.737 219.687 289.799 219.89 290.979 219.89C292.027 219.89 292.952 219.734 293.755 219.423C294.557 219.111 295.152 218.687 295.539 218.148C295.936 217.601 296.134 217.006 296.134 216.364C296.134 215.713 295.945 215.146 295.567 214.665C295.19 214.174 294.567 213.764 293.698 213.433C293.141 213.216 291.909 212.881 290.002 212.428C288.096 211.965 286.76 211.531 285.995 211.125C285.004 210.606 284.263 209.964 283.772 209.199C283.29 208.425 283.05 207.561 283.05 206.608C283.05 205.56 283.347 204.583 283.942 203.677C284.537 202.761 285.405 202.067 286.547 201.595C287.69 201.123 288.959 200.887 290.356 200.887C291.895 200.887 293.25 201.137 294.42 201.638C295.6 202.129 296.507 202.855 297.139 203.818C297.772 204.781 298.111 205.872 298.159 207.089L295.525 207.288C295.383 205.975 294.902 204.984 294.081 204.314C293.269 203.644 292.065 203.309 290.47 203.309C288.808 203.309 287.595 203.615 286.831 204.229C286.075 204.833 285.698 205.565 285.698 206.424C285.698 207.17 285.967 207.783 286.505 208.265C287.033 208.746 288.412 209.242 290.64 209.751C292.877 210.252 294.411 210.691 295.242 211.068C296.45 211.625 297.342 212.333 297.918 213.192C298.494 214.042 298.782 215.024 298.782 216.138C298.782 217.242 298.465 218.285 297.833 219.267C297.2 220.239 296.29 220.999 295.1 221.547C293.92 222.085 292.589 222.354 291.107 222.354C289.228 222.354 287.652 222.08 286.377 221.533C285.112 220.985 284.117 220.164 283.39 219.069C282.672 217.964 282.295 216.718 282.257 215.331Z" fill="#FF5722"/>
<path d="M78.736 244.852V265.574H76.838V263.962H63.162V265.574H61.264V244.852H66.828C67.4 243.812 67.842 242.772 68.102 241.68L70 241.94C69.714 242.98 69.298 243.968 68.778 244.852H78.736ZM63.162 262.168H76.838V257.93H63.162V262.168ZM63.162 256.214H76.838V252.236H63.162V256.214ZM63.162 250.52H76.838V246.646H63.162V250.52ZM112.068 253.64H106.53V255.85H112.666V257.514H106.53V259.932H114.096V261.648H106.53V265.652H104.606V261.648H98.08V259.932H104.606V257.514H99.354V255.85H104.606V253.64H99.666V251.976H104.606V249.662H98.496V248.024H104.606V245.684H99.822V244.02H104.606V241.758H106.53V244.02H112.068V248.024H114.382V249.662H112.068V253.64ZM106.53 245.684V248.024H110.3V245.684H106.53ZM106.53 249.662V251.976H110.3V249.662H106.53ZM94.128 254.602C93.244 255.538 92.256 256.396 91.216 257.202L90.67 255.408C93.166 253.38 94.986 251.092 96.13 248.518L97.768 249.246C97.248 250.338 96.65 251.404 95.948 252.392V265.6H94.128V254.602ZM95.896 241.68L97.534 242.434C96.234 245.268 94.102 247.764 91.164 249.948L90.618 248.128C93.036 246.256 94.804 244.098 95.896 241.68ZM130.242 251.014H139.836V260.114H130.242V251.014ZM138.016 258.346V252.782H132.062V258.346H138.016ZM133.31 241.68L135.26 241.94C134.948 243.24 134.506 244.436 133.934 245.554H145.4V262.896C145.4 264.586 144.594 265.444 143.034 265.444H139.134L138.614 263.546L142.41 263.624C143.138 263.624 143.528 263.234 143.528 262.48V247.348H126.68V265.548H124.808V245.554H131.958C132.582 244.306 133.024 243.032 133.31 241.68ZM165.316 241.758H167.24V249.792H176.886V251.612H167.24V262.74H179.096V264.56H155.956V262.74H165.316V241.758ZM191.836 259.906C192.408 259.906 192.902 260.14 193.266 260.634C193.604 261.102 193.786 261.7 193.786 262.454C193.786 263.598 193.448 264.612 192.772 265.496C192.096 266.328 191.186 266.9 190.094 267.186V265.912C190.77 265.678 191.316 265.288 191.732 264.768C192.096 264.222 192.304 263.65 192.304 263.026C192.2 263.078 191.992 263.13 191.732 263.13C191.29 263.13 190.926 262.974 190.614 262.662C190.302 262.35 190.146 261.96 190.146 261.518C190.146 261.024 190.302 260.634 190.614 260.348C190.926 260.036 191.316 259.906 191.836 259.906ZM230.888 242.876H244.044V244.696H238.298C238.22 245.632 238.116 246.542 237.96 247.426H243.186V259.75H241.34V249.168H233.462V259.802H231.642V247.426H236.062C236.218 246.542 236.322 245.632 236.4 244.696H230.888V242.876ZM239.52 259.906C241.392 261.362 242.978 262.792 244.252 264.248L242.9 265.626C241.756 264.222 240.222 262.714 238.246 261.102L239.52 259.906ZM236.374 250.702H238.22V255.33C238.142 258.086 237.466 260.296 236.166 261.908C234.892 263.416 232.812 264.612 229.926 265.496L228.912 263.91C231.694 263.104 233.618 262.038 234.71 260.712C235.75 259.334 236.296 257.54 236.374 255.33V250.702ZM224.622 265.262H221.684L221.268 263.494C222.204 263.546 223.114 263.598 223.972 263.598C224.596 263.598 224.934 263.208 224.934 262.48V244.696H220.93V242.876H229.978V244.696H226.858V262.948C226.858 264.482 226.104 265.262 224.622 265.262ZM253.69 245.008H255.224V260.582L257.096 260.348V241.966H258.604V260.114C259.228 260.01 259.852 259.88 260.45 259.776V245.008H261.958V250.988C264.324 250.52 266.326 249.922 267.99 249.194C267.002 248.466 266.196 247.712 265.572 246.88C265.052 247.4 264.532 247.868 263.96 248.336L262.816 246.984C264.636 245.632 266.144 243.864 267.314 241.68L268.978 242.044C268.666 242.616 268.354 243.188 268.042 243.708H274.828V245.19C274.1 246.698 272.956 247.998 271.422 249.116C272.982 249.766 274.854 250.286 276.986 250.65L276.336 252.314C273.632 251.82 271.422 251.118 269.654 250.208C267.756 251.196 265.442 252.028 262.738 252.652L261.958 251.196V262.74H260.45V261.414C258.526 261.778 256.368 262.09 253.976 262.35L253.248 260.816C253.534 260.712 253.69 260.53 253.69 260.296V245.008ZM263.492 253.64H268.692V251.794H270.538V253.64H275.66V255.304H270.538V257.436H275.088V259.1H270.538V261.18H276.518V262.818H270.538V265.626H268.692V262.818H262.842V261.18H268.692V259.1H263.96V257.436H268.692V255.304H263.492V253.64ZM269.68 248.284C271.058 247.426 272.124 246.438 272.852 245.32H266.95L266.638 245.71C267.366 246.698 268.38 247.556 269.68 248.284ZM308.212 243.292V265.6H306.392V263.988H297.864V265.626H296.07V243.292H308.212ZM297.864 262.22H306.392V257.618H297.864V262.22ZM297.864 255.876H306.392V251.274H297.864V255.876ZM297.864 249.532H306.392V245.06H297.864V249.532ZM291.494 252.002V265.574H289.648V252.392C288.764 254.888 287.646 257.124 286.242 259.152L285.514 257.306C287.412 254.784 288.764 251.898 289.596 248.648H285.982V246.854H289.648V241.784H291.494V246.854H294.848V248.648H291.494V250.026C292.69 251.274 293.886 252.678 295.082 254.212L294.068 255.72C293.08 254.212 292.222 252.964 291.494 252.002ZM337.514 242.85V257.15H335.616V244.67H324.072V257.176H322.2V242.85H337.514ZM328.752 246.412H330.598V251.3C330.494 255.174 329.558 258.268 327.816 260.582C326.126 262.74 323.344 264.43 319.47 265.652L318.456 264.066C322.304 262.87 324.982 261.284 326.49 259.308C327.894 257.254 328.648 254.576 328.752 251.3V246.412ZM338.008 265.106H332.912C331.248 265.106 330.442 264.144 330.442 262.246V255.278H332.288V261.908C332.288 262.844 332.652 263.338 333.432 263.338H337.514C337.956 263.338 338.32 263.208 338.606 262.974C338.97 262.636 339.23 261.44 339.334 259.412L341.128 259.984C340.894 262.428 340.53 263.936 340.036 264.456C339.568 264.872 338.892 265.08 338.008 265.106Z" fill="#8B8B8B"/>
<defs>
<linearGradient id="paint0_linear_2008_1116" x1="91" y1="32.64" x2="91" y2="102" gradientUnits="userSpaceOnUse">
<stop stop-color="#EFF1F3"/>
<stop offset="1" stop-color="#DDE0E3"/>
</linearGradient>
<linearGradient id="paint1_linear_2008_1116" x1="91" y1="32.64" x2="91" y2="102" gradientUnits="userSpaceOnUse">
<stop stop-color="#9FA5AC"/>
<stop offset="1" stop-color="#CED2D6"/>
</linearGradient>
<linearGradient id="paint2_linear_2008_1116" x1="151.686" y1="0" x2="240.359" y2="152.409" gradientUnits="userSpaceOnUse">
<stop stop-color="#FF6A22"/>
<stop offset="1" stop-color="#FF481D"/>
</linearGradient>
</defs>
</svg>
